<?xml version="1.0" encoding="utf-8"?>
<!-- Generator: Adobe Illustrator 22.0.1, SVG Export Plug-In . SVG Version: 6.00 Build 0)  -->
<svg version="1.1" id="Capa_1" xmlns="http://www.w3.org/2000/svg" xmlns:xlink="http://www.w3.org/1999/xlink" x="0px" y="0px"
	 viewBox="0 0 237 300" style="enable-background:new 0 0 237 300;" xml:space="preserve">
<style type="text/css">
	.st0{fill:#FFFFFF;}
</style>
<g>
	<path class="st0" d="M43.6,157.2C43.6,157.2,43.6,157.1,43.6,157.2c0-0.2,0-0.4,0-0.5l-0.3-4.9c0,0,0-2.3-3.8-2.3s-4.7,3-4.7,3
		l-0.3,7.3c0,0.1,0,0.3,0,0.4v0.1v0.1l0,0c0,0.1,0,0.1,0,0.2c0,0.9,0.4,2,0.9,3.2c1.5,3.6,4.2,8.2,4.2,8.2l1.1,1.8l-0.1-9.1
		l-0.2-0.2l0,0c-0.1-0.1-0.8-0.9-1.5-2s-1.3-2.5-1.3-3.9c0-0.1,0-0.2,0-0.3c0.1,0.1,0.2,0.3,0.2,0.4c0.3,0.4,0.6,0.7,0.6,0.7l0,0
		l0,0c0.5,0.4,1.1,0.5,1.8,0.5s1.4-0.2,2-0.6c0.6-0.4,1.1-1,1.2-1.9C43.6,157.5,43.6,157.4,43.6,157.2L43.6,157.2L43.6,157.2z
		 M39.7,156.3c0.1,0,0.2,0.1,0.3,0.1c0.2,0.1,0.3,0.2,0.5,0.5v0.2c-0.1,0.1-0.1,0.1-0.2,0.2h-0.1c-0.3,0-0.5-0.2-0.5-0.4v-0.1
		l-1-0.3c0,0,0-0.1,0.1-0.1c0.1-0.1,0.4-0.1,0.7-0.2C39.4,156.3,39.5,156.3,39.7,156.3z M42.4,157.4c-0.1,0.5-0.3,0.8-0.7,1.1
		s-0.9,0.4-1.4,0.4c-0.4,0-0.8-0.1-1.1-0.3c-0.1-0.1-0.3-0.3-0.4-0.6c-0.2-0.3-0.4-0.7-0.4-1c0-0.1,0-0.2,0-0.3c0,0.1,0,0.1,0,0.2
		c0,0.4,0.2,0.8,0.5,1.1s0.7,0.4,1.1,0.4c0.1,0,0.2,0,0.3,0c0.5-0.1,0.9-0.5,1.1-0.8c0.2-0.3,0.2-0.6,0.2-0.8v-0.1v-0.1v-0.1
		c-0.2-0.5-0.6-0.9-1-1.1c-0.4-0.2-0.8-0.3-1.1-0.3h-0.1l0,0c-1,0-1.6,0.5-2,0.9s-0.5,0.9-0.6,0.9l0,0l0,0c-0.2,0.6-0.2,1.1-0.2,1.7
		c0,1.9,0.8,3.6,1.6,4.8c0.6,0.9,1.1,1.5,1.4,1.8v4.4c-0.7-1.2-1.5-2.8-2.3-4.3c-0.4-0.9-0.8-1.8-1.1-2.7c-0.3-0.8-0.5-1.5-0.5-2
		c0-0.1,0-0.3,0-0.4c0-1.4,0.4-2.8,1-3.9c0.6-1.1,1.5-1.7,2.4-1.8c0.1,0,0.3,0,0.4,0c0.9,0,1.6,0.3,2.2,0.8c0.6,0.5,0.9,1.2,0.9,1.8
		C42.5,157.2,42.4,157.3,42.4,157.4z"/>
	<g>
		<path class="st0" d="M40.3,135.8c0.6,0,1.2,0.1,1.7,0.4l-0.1-67h146.3l-0.1,66.9c0.5-0.2,1-0.3,1.5-0.3c0.3,0,0.5,0,0.8,0.1v-3.6
			c-0.4-0.5,0-8.5,0-8.5s0,0,0.1,0.1l0.1-57.1h-151l0.1,69C39.9,135.8,40.1,135.8,40.3,135.8z"/>
		<path class="st0" d="M42,150v-4.1c-0.5,0.3-1.3,0.5-2.3,0.5v3C39.7,149.4,41,149.4,42,150z"/>
		<path class="st0" d="M39.7,160v41c0,0.2-0.1,0.9-0.1,1.9c0,2.7,0.6,7.7,4.8,12.5c4.1,4.8,11.6,9,25,10.4
			c6.2,0.6,11.3,1.1,15.6,1.5c-0.5-0.5-0.6-0.7-0.7-0.7l0,0l0,0l3.2,0.1c0,0,0.2,0.4,0.6,0.9c4.1,0.4,7.4,0.7,10.2,1.1
			c0.3-1,1.2-1.8,3.1-1.3c1,0.3,1.9,1.2,2.2,2.3c1.6,0.5,3,1,4.3,1.8c2.1,1.2,4,2.9,6.3,5.3l0.3,0.4h0.6h0.5l0.3-0.4
			c2.3-2.5,4.2-4.1,6.3-5.3c1.6-0.9,3.1-1.5,5.1-2c0.2-1.1,1.7-2.2,2.6-2.4c1.9-0.6,3,1.4,3,1.4s14.6-1.3,27.8-2.6
			c13.3-1.4,20.8-5.7,25-10.4c4.1-4.7,4.8-9.8,4.8-12.5c0-1-0.1-1.6-0.1-1.9v-29l0,0c0,0-0.5-7.8-0.4-7.9c0.1-0.1,0.3-0.3,0.4-0.5
			v-3.6c-0.2,0.1-0.5,0.1-0.7,0.1c-0.5,0-1.1-0.1-1.6-0.3v41.4v0.1l0,0c0,0,0.1,0.6,0.1,1.6c0,2.3-0.6,6.8-4.2,11
			c-3.7,4.2-10.5,8.3-23.5,9.7c-16,1.7-25,2-31.4,3.2c-3.2,0.6-5.7,1.4-8.1,2.8c-2.1,1.2-4,2.8-6,4.9c-2.1-2.1-3.9-3.7-6-4.9
			c-1.8-1-3.6-1.7-5.8-2.3c-6.5-1.6-15.6-1.8-33.7-3.7c-13-1.4-19.8-5.5-23.5-9.7s-4.2-8.7-4.2-11c0-0.5,0-0.9,0.1-1.2
			c0-0.1,0-0.2,0-0.3v-0.1l0,0v-0.1v-41.5C42,159.7,41,160.2,39.7,160z"/>
	</g>
	<path class="st0" d="M43.6,138.7L43.6,138.7v-0.1l0,0c0-0.1,0-0.3,0-0.4c-0.1-0.8-0.6-1.5-1.2-1.9c-0.6-0.4-1.3-0.6-2-0.6
		c-0.6,0-1.3,0.2-1.8,0.5l0,0l0,0c0,0-0.3,0.3-0.6,0.7c-0.1,0.1-0.2,0.2-0.2,0.4c0-0.1,0-0.2,0-0.3c0-1.6,0.7-3,1.4-4.1
		c0.4-0.5,0.7-1,1-1.3c0.1-0.2,0.2-0.3,0.3-0.4l0.1-0.1l0,0l0.2-0.2l0.1-9.1l-1.1,1.8c0,0-1.2,2-2.5,4.5c-0.6,1.2-1.3,2.5-1.7,3.7
		c-0.5,1.2-0.8,2.3-0.9,3.2c0,0.1,0,0.3,0,0.4c0,0.1,0,0.1,0,0.2l0,0l0.3,7.5c0,0,0.9,3,4.7,3s3.8-2.3,3.8-2.3l0.3-4.9
		C43.6,139,43.6,138.9,43.6,138.7z M39.6,138.9c0-0.2,0.1-0.4,0.5-0.4h0.1c0.2,0,0.2,0.1,0.2,0.2v0.2c-0.2,0.3-0.3,0.4-0.5,0.5
		c-0.1,0-0.2,0.1-0.3,0.1s-0.3,0-0.4,0c-0.2,0-0.4,0-0.5-0.1l-0.2-0.1c0,0,0-0.1-0.1-0.1l1-0.3L39.6,138.9z M35.6,135.3
		c0-0.6,0.3-1.7,0.8-2.9c0.7-1.7,1.7-3.8,2.6-5.3c0.2-0.3,0.3-0.6,0.5-0.8v4.4c-0.3,0.3-0.8,0.9-1.4,1.8c-0.8,1.2-1.6,2.9-1.6,4.8
		c0,0.5,0.1,1.1,0.2,1.7l0,0l0,0c0,0,0.2,0.5,0.6,0.9c0.4,0.4,1.1,0.9,2,0.9l0,0h0.1c0.4,0,0.8-0.1,1.1-0.3c0.4-0.2,0.7-0.6,1-1.1
		v-0.1v-0.1v-0.1c0-0.1,0-0.4-0.2-0.8c-0.1-0.3-0.5-0.7-1.1-0.8c-0.1,0-0.2,0-0.3,0c-0.4,0-0.8,0.2-1.1,0.4
		c-0.3,0.3-0.5,0.7-0.5,1.1c0,0.1,0,0.1,0,0.2c0-0.1,0-0.2,0-0.3c0-0.3,0.2-0.7,0.4-1.1c0.1-0.2,0.2-0.3,0.3-0.4l0.1-0.1
		c0.2-0.2,0.6-0.3,1.1-0.3s1,0.1,1.4,0.4c0.4,0.3,0.7,0.6,0.7,1.1c0,0.1,0,0.2,0,0.3c0,0.6-0.3,1.3-0.9,1.8
		c-0.6,0.5-1.3,0.8-2.2,0.8c-0.1,0-0.3,0-0.4,0c-0.9-0.1-1.8-0.8-2.4-1.8c-0.6-1-1-2.4-1-3.9C35.6,135.6,35.6,135.4,35.6,135.3z"/>
	<path class="st0" d="M195.5,160.3v-0.1c0-0.1,0-0.3,0-0.4l-0.3-7.3c0,0-0.9-3-4.7-3s-3.8,2.3-3.8,2.3l-0.3,4.8
		c0,0.2-0.1,0.4-0.1,0.5c0,0.2,0,0.3,0,0.5c0.1,0.8,0.6,1.5,1.2,1.9c0.6,0.4,1.3,0.6,2,0.6c0.6,0,1.3-0.2,1.8-0.5l0,0l0,0
		c0,0,0.3-0.3,0.6-0.7c0.1-0.1,0.2-0.2,0.2-0.4c0,0.1,0,0.2,0,0.3c0,1.6-0.7,3-1.4,4.1c-0.4,0.5-0.7,1-1,1.3
		c-0.1,0.2-0.2,0.3-0.3,0.4l-0.1,0.1l0,0l-0.2,0.2L189,174l1.1-1.8c0,0,1.2-2,2.5-4.5c0.6-1.2,1.3-2.5,1.7-3.7
		c0.5-1.2,0.8-2.3,0.9-3.2C195.5,160.5,195.5,160.5,195.5,160.3L195.5,160.3L195.5,160.3z M190.4,157c0,0.2-0.1,0.4-0.5,0.4h-0.1
		c-0.2,0-0.2-0.1-0.2-0.2V157c0.2-0.3,0.3-0.4,0.5-0.5c0.1,0,0.2-0.1,0.3-0.1s0.3,0,0.4,0c0.2,0,0.4,0,0.5,0.1l0.2,0.1l0.1,0.1
		l-1,0.3L190.4,157z M194.4,160.5c0,0.6-0.3,1.7-0.8,2.9c-0.7,1.7-1.7,3.8-2.6,5.3c-0.2,0.3-0.3,0.6-0.5,0.8v-4.4
		c0.3-0.3,0.8-0.9,1.4-1.8c0.8-1.2,1.6-2.9,1.6-4.8c0-0.5-0.1-1.1-0.2-1.7l0,0l0,0c0,0-0.2-0.5-0.6-0.9c-0.4-0.4-1.1-0.9-2-0.9l0,0
		c0,0,0,0-0.1,0c-0.4,0-0.8,0.1-1.2,0.3s-0.7,0.6-1,1.1v0.1v0.1v0.1c0,0.1,0,0.4,0.2,0.8c0.1,0.3,0.5,0.7,1.1,0.8c0.1,0,0.2,0,0.3,0
		c0.4,0,0.8-0.2,1.1-0.4c0.3-0.3,0.5-0.7,0.5-1.1c0-0.1,0-0.1,0-0.2c0,0.1,0,0.2,0,0.3c0,0.3-0.2,0.7-0.4,1.1
		c-0.1,0.2-0.2,0.3-0.3,0.4l-0.1,0.1l0,0c-0.2,0.2-0.6,0.3-1.1,0.3s-1-0.1-1.4-0.4c-0.4-0.3-0.7-0.6-0.7-1.1c0-0.1,0-0.2,0-0.3
		c0-0.6,0.3-1.3,0.9-1.8c0.6-0.5,1.3-0.8,2.2-0.8c0.1,0,0.3,0,0.4,0c0.9,0.1,1.8,0.8,2.4,1.8c0.6,1,1,2.4,1,3.9
		C194.4,160.3,194.4,160.4,194.4,160.5z"/>
	<path class="st0" d="M195.5,135.7c0-0.1,0-0.2,0-0.3l0,0l0,0v-0.1c0-0.9-0.4-2-0.9-3.2c-1.5-3.6-4.2-8.2-4.2-8.2l-1.1-1.8l0.1,9.1
		l0.2,0.2l0,0c0.1,0.1,0.9,0.9,1.5,2c0.7,1.1,1.3,2.5,1.3,3.9c0,0.1,0,0.2,0,0.3c-0.1-0.1-0.2-0.3-0.2-0.4c-0.3-0.4-0.6-0.7-0.6-0.7
		l0,0l0,0c-0.5-0.4-1.1-0.5-1.8-0.5s-1.4,0.2-2,0.6c-0.6,0.4-1.1,1-1.2,1.9c0,0.2,0,0.3,0,0.5s0,0.4,0.1,0.5l0.3,4.8
		c0,0,0,2.3,3.8,2.3s4.7-3,4.7-3l0.3-6.9C195.5,136.2,195.5,136,195.5,135.7z M190.3,139.5c-0.1,0-0.2-0.1-0.3-0.1
		c-0.2-0.1-0.3-0.2-0.5-0.5v-0.2c0.1-0.1,0.1-0.1,0.2-0.2h0.1c0.3,0,0.5,0.2,0.5,0.4v0.1l1,0.3c0,0,0,0.1-0.1,0.1
		c-0.1,0.1-0.4,0.1-0.7,0.1C190.6,139.5,190.5,139.5,190.3,139.5z M187.6,138.4c0.1-0.5,0.3-0.8,0.7-1.1s0.9-0.4,1.4-0.4
		c0.4,0,0.8,0.1,1.1,0.3c0.1,0.1,0.3,0.3,0.5,0.6s0.4,0.7,0.4,1c0,0.1,0,0.2,0,0.3c0-0.1,0-0.1,0-0.2c0-0.4-0.2-0.8-0.5-1.1
		s-0.7-0.4-1.1-0.4c-0.1,0-0.2,0-0.3,0c-0.5,0.1-0.9,0.5-1.1,0.8c-0.2,0.3-0.2,0.6-0.2,0.8v0.1v0.1v0.1c0.2,0.5,0.6,0.9,1,1.1
		c0.4,0.2,0.8,0.3,1.2,0.3h0.1l0,0c1,0,1.6-0.5,2-0.9s0.5-0.9,0.6-0.9l0,0l0,0c0.2-0.6,0.2-1.1,0.2-1.7c0-1.9-0.8-3.6-1.6-4.8
		c-0.6-0.9-1.1-1.5-1.4-1.8v-4.4c0.7,1.2,1.5,2.8,2.3,4.3c0.4,0.9,0.8,1.8,1.1,2.7c0.3,0.8,0.5,1.5,0.5,2c0,0.1,0,0.3,0,0.4
		c0,1.4-0.4,2.8-1,3.9c-0.6,1.1-1.5,1.7-2.4,1.8c-0.1,0-0.3,0-0.4,0c-0.9,0-1.6-0.3-2.2-0.8c-0.6-0.5-0.9-1.2-0.9-1.8
		C187.5,138.6,187.6,138.5,187.6,138.4z"/>
	<path class="st0" d="M103.4,171.1h0.3V171c0-0.1,0-0.3-0.1-0.6c-0.1-0.2-0.3-0.5-0.7-0.6c-0.2,0-0.3-0.1-0.5-0.1s-0.5,0.1-0.6,0.2
		c-0.2,0.1-0.3,0.3-0.4,0.5s-0.2,0.4-0.2,0.6c-0.2,0.7-0.2,1.6-0.2,1.6v0.1v0.1c0,0,0.2,0.5,0.9,0.7c0.1,0,0.2,0,0.3,0
		c0.2,0,0.4,0,0.6-0.2c0.2-0.1,0.3-0.3,0.4-0.5c0.1-0.4,0.5-1.7,0.5-1.7l0,0l0,0H103.4l-0.3-0.1c0,0-0.1,0.3-0.2,0.7s-0.2,0.8-0.3,1
		l-0.1,0.2c-0.1,0-0.2,0.1-0.3,0.1H102c-0.2,0-0.3-0.1-0.4-0.2l-0.1-0.1l0,0l0,0l0,0l0,0l0,0l0,0l-0.3,0.1h0.3c0,0,0-0.4,0.1-0.9
		c0-0.2,0.1-0.5,0.1-0.7s0.1-0.4,0.1-0.4c0.1-0.1,0.2-0.2,0.3-0.3c0.1-0.1,0.2-0.1,0.3-0.1c0.1,0,0.2,0,0.3,0c0.2,0,0.2,0.1,0.3,0.2
		c0.1,0.1,0.1,0.3,0.1,0.3l0,0L103.4,171.1l-0.3-0.1L103.4,171.1z"/>
	<path class="st0" d="M94.9,166.3h0.3c0,0,0-0.1,0-0.2c0-0.2,0-0.4-0.1-0.7s-0.3-0.6-0.7-0.7c-0.1-0.1-0.3-0.1-0.4-0.1
		c-0.4,0-0.9,0.2-1.2,0.5c-0.3,0.3-0.5,0.6-0.5,1.1c0,0.4,0.2,0.8,0.4,1c0.1,0.1,0.2,0.2,0.3,0.3c0.1,0.1,0.2,0.1,0.3,0.1l0,0l0,0
		l0,0c0.1,0,0.2-0.1,0.3-0.1c0.1-0.1,0.1-0.2,0.1-0.3s0.1-0.2,0.1-0.3l0.2-0.2c0.3-0.1,0.6-0.2,0.7-0.2h0.1l0,0v-0.1l-0.1,0.1h0.1
		v-0.1l-0.1,0.1l0.4,0.4l0.1-0.6H94.9l0.2-0.2c-0.2-0.1-0.3-0.1-0.4-0.1c-0.3,0-0.6,0.1-1,0.2c-0.3,0.2-0.5,0.5-0.5,0.7
		c0,0.1-0.1,0.2-0.1,0.2l0,0l0.1,0.1l-0.1-0.1l0,0l0.1,0.1l-0.1-0.1l0.1,0.2V167h-0.1l0.1,0.2V167v0.2V167l0,0v0.2V167l0,0v0.1V167
		l0,0v0.1V167c0,0-0.2-0.1-0.3-0.3c-0.1-0.2-0.2-0.4-0.2-0.6c0-0.2,0.1-0.4,0.3-0.6c0.2-0.2,0.5-0.3,0.8-0.3H94
		c0.2,0.1,0.3,0.2,0.4,0.4s0.1,0.4,0.1,0.5v0.1l0,0L94.9,166.3l0.2-0.2L94.9,166.3z"/>
	<path class="st0" d="M95.4,164.3v0.3c0,0,0.1,0,0.3,0c0.2,0,0.5,0,0.8-0.2c0.1-0.1,0.3-0.2,0.4-0.4c0.1-0.1,0.2-0.3,0.2-0.5v-0.2
		c-0.1-0.3-0.3-0.5-0.6-0.8c-0.3-0.2-0.6-0.4-1-0.5l0,0v0.3V162c-0.3,0-0.7,0.1-0.9,0.3c-0.3,0.2-0.5,0.4-0.6,0.7v0.3l0.1,0.3
		c0.1,0.1,0.2,0.2,0.3,0.2h0.2c0.1,0,0.3,0.1,0.5,0.2C95.3,164.1,95.4,164.2,95.4,164.3l0.1,0.2h0.2L95.4,164.3l0.3-0.1
		c-0.1-0.3-0.4-0.5-0.6-0.6s-0.5-0.2-0.6-0.3s-0.2-0.1-0.2-0.1v0.1l0,0l0,0v0.1l0,0l-0.1,0.1l0.1-0.1v-0.1l-0.1,0.1l0.1-0.1h-0.1
		h0.1l0,0h-0.1h0.1v-0.1c0-0.1,0.2-0.3,0.4-0.4c0.2-0.1,0.5-0.2,0.7-0.2l0,0l0,0c0.1,0,0.4,0.1,0.7,0.3c0.2,0.2,0.4,0.4,0.4,0.5l0,0
		l-0.1,0.2c-0.1,0.1-0.2,0.2-0.3,0.3c0,0-0.3,0.1-0.4,0.1h-0.2h-0.1L95.4,164.3l0.3-0.1L95.4,164.3z"/>
	<path class="st0" d="M103.1,159.7L103,160l0,0c0.1,0,0.2,0.1,0.3,0.2c0.1,0.1,0.2,0.2,0.2,0.4v0.3c0,0.3-0.1,0.5-0.1,0.5l0.1,0.1
		l-0.1-0.1l0,0l0.1,0.1l-0.1-0.1l0,0l0,0l0,0l0,0l0,0c0,0-0.2,0.1-0.3,0.1c-0.2,0-0.4,0-0.5,0s-0.3,0-0.4,0h-0.1l0,0l0,0l0,0l0,0
		l-0.1,0.1l0.1-0.1l0,0l-0.1,0.1l0.1-0.1c0-0.1-0.1-0.2-0.1-0.5c-0.1-0.2-0.2-0.6-0.5-0.9l0,0h-0.1h0.1l0,0h-0.1h0.1h-0.1h0.1l0,0
		h-0.1h0.1l0,0c0,0,0.2-0.1,0.4-0.2c0.2,0,0.4-0.1,0.6-0.1c0.1,0,0.2,0,0.3,0h0.1l0,0l0,0l0,0l0,0l0,0l0,0l0.1,0.1h0.1V159.7
		l0.2-0.2c-0.1-0.1-0.2-0.2-0.4-0.2c-0.1,0-0.3,0-0.4,0c-0.3,0-0.6,0.1-0.9,0.2c-0.1,0.1-0.3,0.1-0.4,0.2c-0.1,0.1-0.2,0.2-0.2,0.4
		s0.1,0.3,0.2,0.4c0.3,0.3,0.3,0.4,0.4,0.6c0,0.2,0,0.4,0.2,0.6c0.1,0.2,0.3,0.2,0.4,0.3c0.2,0,0.3,0,0.5,0s0.5,0,0.7-0.1
		c0.1,0,0.2,0,0.3-0.1l0.2-0.1c0.2-0.2,0.3-0.5,0.3-0.9c0-0.1,0-0.2,0-0.4c-0.1-0.4-0.3-0.6-0.5-0.8c-0.2-0.1-0.4-0.2-0.4-0.2
		L103.1,159.7l0.2-0.2L103.1,159.7z"/>
	<path class="st0" d="M113.3,158.4l-0.3-0.1c0,0-0.1,0.3-0.1,0.8c0,0.3,0,0.5,0.1,0.9s0.3,0.6,0.5,0.8c0.2,0.1,0.5,0.2,0.7,0.2
		s0.3,0,0.4,0l-0.1-0.3v0.3c0,0,0.3,0,0.6-0.1c0.1-0.1,0.3-0.2,0.4-0.3s0.2-0.4,0.2-0.6v-0.1c0-0.1,0-0.2,0-0.3c0-0.3,0-0.5,0-0.7
		s0-0.4-0.1-0.6c-0.1-0.2-0.3-0.3-0.5-0.4c-0.2-0.1-0.5-0.1-0.7-0.1h-0.1v0.3v-0.3c-0.2,0-0.5,0.1-0.7,0.1c-0.1,0-0.2,0.1-0.3,0.1
		c-0.1,0.1-0.2,0.1-0.3,0.3L113.3,158.4l-0.3-0.1L113.3,158.4l0.3,0.1h-0.1l0.1,0.1v-0.1h-0.1l0.1,0.1l0,0c0.1-0.1,0.5-0.2,0.8-0.2
		l0,0l0,0c0.1,0,0.3,0,0.5,0.1c0.1,0.1,0.3,0.1,0.3,0.2l0,0c0,0,0,0.1,0,0.3s0,0.4,0,0.7c0,0.1,0,0.2,0,0.3l0,0c0,0.1,0,0.2-0.1,0.2
		c-0.1,0.1-0.2,0.2-0.3,0.2h-0.2l0,0l0,0l0,0l0,0l0,0h-0.2c-0.1,0-0.3,0-0.4-0.1s-0.2-0.2-0.2-0.4c-0.1-0.3-0.1-0.5-0.1-0.7
		s0-0.4,0-0.5v-0.1l0,0l0,0l0,0L113.3,158.4z"/>
	<path class="st0" d="M124.6,159.8l0.1,0.3h0.1c0.1-0.1,0.4-0.2,0.6-0.2h0.2c0.2,0.1,0.3,0.2,0.4,0.2l0.1,0.2l0,0
		c0,0.2,0,0.5-0.1,0.7c0,0.1,0,0.2-0.1,0.3v0.1l0,0l0.1,0.1l-0.1-0.1l0,0l0.1,0.1l-0.1-0.1v0.1v-0.1l0,0v0.1v-0.1c0,0-0.2,0-0.4,0
		c-0.2,0-0.4,0-0.5-0.1c-0.1,0-0.3-0.1-0.3-0.1l0,0c0-0.1,0-0.2,0-0.4s0-0.5,0.1-0.7c0-0.2,0.1-0.3,0.1-0.3H124.6l0.1,0.3
		L124.6,159.8l-0.3-0.1c0,0-0.1,0.6-0.1,1.2c0,0.3,0,0.5,0.2,0.8c0.2,0.2,0.4,0.3,0.6,0.3c0.2,0.1,0.4,0.1,0.6,0.1
		c0.1,0,0.3,0,0.4,0s0.2,0,0.3-0.1c0.1-0.1,0.2-0.2,0.2-0.4c0.1-0.4,0.1-0.9,0.1-1.2l0,0c0-0.3-0.1-0.5-0.3-0.6
		c-0.2-0.2-0.4-0.3-0.6-0.4c-0.1,0-0.2-0.1-0.4-0.1c-0.5,0-0.9,0.3-0.9,0.3l-0.1,0.1v0.1L124.6,159.8z"/>
	<path class="st0" d="M134.9,163.3h0.3c0,0,0-0.3-0.2-0.5c-0.2-0.3-0.5-0.5-1-0.6h-0.2c-0.9,0-1.5,0.5-1.6,1.1v0.2
		c0,0.2,0,0.4,0.1,0.6c0.1,0.2,0.2,0.3,0.4,0.4c0.1,0,0.4,0.1,0.8,0.1c0.3,0,0.6-0.1,0.9-0.3c0.2-0.2,0.3-0.4,0.4-0.5l0.1-0.2l0,0
		V163.3v0.3h0.1L134.9,163.3v0.3V163.3l-0.1,0.3h0.1V163.3l-0.1,0.3l0.4,0.1l-0.1-0.4L134.9,163.3l0.1-0.3h-0.1
		c-0.1,0-0.2,0-0.2,0.1c-0.1,0.1-0.2,0.2-0.3,0.3s-0.3,0.3-0.4,0.5c-0.1,0.1-0.2,0.1-0.5,0.1c-0.2,0-0.5-0.1-0.6-0.1l0,0
		c0,0-0.1-0.2-0.1-0.5v-0.2c0-0.2,0.4-0.6,1-0.6h0.1c0.3,0,0.5,0.2,0.6,0.3l0.1,0.2v0.1l0,0l0,0l0,0l0,0l0,0L134.9,163.3l0.1-0.3
		L134.9,163.3z"/>
	<path class="st0" d="M136.5,165.7v-0.3c0,0-0.2,0-0.5,0.1s-0.6,0.2-0.8,0.5c-0.1,0.2-0.1,0.4-0.1,0.5c0,0.4,0.1,0.7,0.3,0.9
		c0.1,0.1,0.2,0.2,0.3,0.2c0.2,0,0.3-0.1,0.4-0.2l0.1-0.1l0,0l0,0c0.1,0,0.3,0,0.4,0.1l0.2,0.1h0.1l0,0l0,0l0,0l0,0l0,0l0,0
		c0,0.1,0.1,0.2,0.3,0.2c0.1,0,0.2-0.1,0.2-0.1c0.1-0.1,0.2-0.3,0.2-0.5s0.1-0.4,0.1-0.6c0-0.2,0-0.4-0.1-0.6
		c-0.1-0.3-0.3-0.5-0.5-0.6s-0.4-0.1-0.6-0.1c-0.2,0-0.3,0-0.3,0L136.5,165.7v-0.3V165.7v0.3c0,0,0.1,0,0.2,0c0.1,0,0.2,0,0.3,0.1
		c0.1,0,0.1,0.1,0.2,0.2c0,0.1,0.1,0.3,0.1,0.4c0,0.2,0,0.4-0.1,0.5l-0.1,0.1l0,0l0.2,0.1v-0.2c-0.1,0-0.2,0.1-0.2,0.1l0.2,0.1v-0.2
		v0.2l0.2-0.1c0,0-0.1-0.1-0.2-0.1v0.2l0.2-0.1c-0.2-0.2-0.4-0.3-0.6-0.4c-0.2-0.1-0.4-0.1-0.6-0.1c-0.2,0-0.3,0.1-0.5,0.2l-0.1,0.1
		l0,0l0,0v0.1V167l0,0v0.1V167v0.1l0.1-0.1h-0.1v0.1l0.1-0.1c-0.1-0.1-0.2-0.3-0.2-0.5l0.1-0.3c0-0.1,0.2-0.2,0.4-0.2l0.3-0.1h0.1
		l0,0l0,0L136.5,165.7z"/>
	<path class="st0" d="M133.6,169.8l-0.2,0.2h0.1h-0.1l0,0h0.1h-0.1c0,0,0.3,0.4,0.3,1c0,0.2,0,0.4-0.1,0.6c-0.1,0.3-0.1,0.4-0.2,0.4
		l-0.2,0.1H133c-0.1,0-0.2-0.1-0.3-0.1h-0.1l0.1,0.3V172v0.2V172l0,0v0.2V172v0.2l0.2-0.2l-0.2-0.1v0.2l0.2-0.2l-0.1,0.1l0.2-0.1
		v-0.1l-0.1,0.1l0.2-0.1l0,0l0,0l0,0l0,0l0,0v-0.1c0-0.2,0-0.4,0-0.7c0-0.2,0-0.5-0.1-0.7v-0.2l0.1-0.3c0.1-0.1,0.2-0.1,0.4-0.1
		c0.1,0,0.2,0,0.3,0L133.6,169.8l-0.2,0.2L133.6,169.8l0.1-0.3c-0.2,0-0.3-0.1-0.5-0.1c-0.3,0-0.6,0.1-0.8,0.3s-0.3,0.4-0.3,0.7
		c0,0.2,0,0.3,0.1,0.5c0,0,0.1,0.2,0.1,0.4s0,0.5,0,0.7v0.2l0.1,0.2c0,0.1,0.2,0.1,0.3,0.1h0.1l0,0l0,0v-0.2v0.2l0,0v-0.2v0.2v-0.1
		v0.1l0,0v-0.1v0.1l0.2,0.1c0.1,0,0.2,0.1,0.4,0.1s0.4-0.1,0.6-0.2c0.2-0.2,0.3-0.4,0.4-0.7c0.1-0.3,0.1-0.5,0.1-0.7
		c0-0.8-0.4-1.3-0.4-1.3l-0.1-0.1h-0.1L133.6,169.8z"/>
	<path class="st0" d="M118.1,172.6l0.1,0.2l0,0c0,0,0.3-0.2,0.6-0.2c0.2,0,0.3,0,0.5,0.2s0.3,0.4,0.4,0.6c0.1,0.2,0.1,0.5,0.1,0.8
		v0.1v0.3l0,0l-0.1,0.1c-0.1,0-0.2,0.1-0.4,0.1c-0.1,0-0.3,0-0.4-0.1l-0.1-0.1l0,0c-0.2-0.4-0.2-0.4-0.2-0.4l-0.3,0.1l0.3-0.1
		c0,0-0.1-0.2-0.2-0.5s-0.2-0.6-0.3-0.8l0,0l0,0l0.1-0.1l0,0l0,0L118.1,172.6l-0.1-0.3l-0.3,0.2c-0.1,0.1-0.2,0.2-0.2,0.4
		c0,0.1,0,0.3,0.1,0.4c0.1,0.1,0.2,0.4,0.3,0.6c0.1,0.2,0.1,0.5,0.1,0.5l0,0l0,0l0.2,0.4c0.1,0.2,0.3,0.3,0.5,0.4
		c0.2,0.1,0.4,0.1,0.6,0.1s0.5,0,0.7-0.2c0.2-0.1,0.4-0.4,0.4-0.6l0,0v-0.3v-0.1c0-0.3,0-0.6-0.1-0.9c-0.1-0.3-0.2-0.6-0.5-0.9
		c-0.3-0.3-0.6-0.3-0.9-0.3c-0.5,0-0.9,0.2-0.9,0.2L118.1,172.6l-0.1-0.3L118.1,172.6z"/>
	<path class="st0" d="M96.3,189.7H96l-0.1,0.2c-0.1,0.1-0.2,0.1-0.4,0.1c-0.2,0-0.3,0-0.4-0.1l-0.1-0.2v-1l0.1-0.2
		c0.1-0.1,0.2-0.1,0.4-0.1c0.2,0,0.3,0.1,0.4,0.1l0.1,0.2v1H96.3h0.3v-1c0-0.3-0.1-0.5-0.3-0.7c-0.2-0.2-0.5-0.3-0.7-0.3
		c-0.3,0-0.5,0.1-0.7,0.3s-0.3,0.4-0.3,0.7v1c0,0.3,0.1,0.5,0.3,0.7c0.2,0.2,0.5,0.3,0.7,0.3c0.3,0,0.5-0.1,0.7-0.3s0.3-0.4,0.3-0.7
		H96.3z"/>
	<path class="st0" d="M108.6,195.3h-0.3l-0.1,0.2c-0.1,0.1-0.2,0.1-0.4,0.1c-0.2,0-0.3-0.1-0.4-0.1l-0.1-0.2v-1l0.1-0.2
		c0.1-0.1,0.2-0.1,0.4-0.1c0.2,0,0.3,0.1,0.4,0.1l0.1,0.2v1H108.6h0.3v-1c0-0.3-0.1-0.5-0.3-0.7c-0.2-0.2-0.5-0.3-0.7-0.3
		c-0.3,0-0.5,0.1-0.7,0.3s-0.3,0.4-0.3,0.7v1c0,0.3,0.1,0.5,0.3,0.7c0.2,0.2,0.5,0.3,0.7,0.3c0.3,0,0.5-0.1,0.7-0.3s0.3-0.4,0.3-0.7
		H108.6z"/>
	<path class="st0" d="M125.7,194.6h-0.3c0,0.1,0,0.1-0.2,0.2c-0.1,0.1-0.3,0.1-0.5,0.1s-0.4-0.1-0.5-0.1c-0.1-0.1-0.2-0.2-0.2-0.2
		v-1c0-0.1,0-0.1,0.2-0.2c0.1-0.1,0.3-0.1,0.5-0.1s0.4,0.1,0.5,0.1c0.1,0.1,0.2,0.2,0.2,0.2v1H125.7h0.3v-1c0-0.3-0.2-0.5-0.4-0.7
		c-0.2-0.2-0.5-0.2-0.8-0.2s-0.6,0.1-0.8,0.2c-0.2,0.2-0.4,0.4-0.4,0.7v1c0,0.3,0.2,0.5,0.4,0.7c0.2,0.2,0.5,0.2,0.8,0.2
		s0.6-0.1,0.8-0.2c0.2-0.1,0.4-0.4,0.4-0.7H125.7z"/>
	<path class="st0" d="M136.1,187.7h-0.3l-0.1,0.2c-0.1,0.1-0.2,0.1-0.3,0.1s-0.3,0-0.3-0.1l-0.1-0.2v-0.8l0.1-0.2
		c0.1-0.1,0.2-0.1,0.3-0.1s0.3,0,0.3,0.1l0.1,0.2v0.8H136.1h0.3v-0.8c0-0.3-0.1-0.5-0.3-0.6s-0.4-0.2-0.7-0.2s-0.5,0.1-0.7,0.2
		c-0.2,0.1-0.3,0.4-0.3,0.6v0.8c0,0.3,0.1,0.5,0.3,0.6s0.4,0.2,0.7,0.2s0.5-0.1,0.7-0.2c0.2-0.1,0.3-0.4,0.3-0.6H136.1z"/>
	<path class="st0" d="M85.6,84.9L85.6,84.9L85.6,84.9L85.6,84.9L85.6,84.9c0,0-0.1-0.1-0.3-0.1h-1.1h-0.6h-0.2c0,0-0.7-0.4-1.3-1.1
		c-0.3-0.3-0.6-0.7-0.8-1.1v11.1c1.1,0,2.5,0,3.7,0c0.2,0,0.4,0,0.6,0L85.6,84.9L85.6,84.9L85.6,84.9L85.6,84.9z"/>
	<g>
		<path class="st0" d="M88.4,93.5v-7.6l0,0l0,0l0,0c0-0.1,0-0.2-0.1-0.3c-0.1-0.1-0.3-0.3-0.8-0.3h-0.1l0,0c-0.6,0-1,0-1.2,0v8.4
			c0.7,0,1.2,0,1.5,0h0.2C88.2,93.7,88.3,93.6,88.4,93.5L88.4,93.5L88.4,93.5z"/>
	</g>
	<path class="st0" d="M145.6,95.3l0.6,0.1c0,0,0.1-0.5,0.1-1.2c0-2-0.6-6.4-4.9-11l-1.1-1.2l0.1,1.6c0,0,0.2,2.2,0.8,4.8
		c0.7,2.6,1.8,5.6,4,7.3l0.7,0.6l0.2-0.9L145.6,95.3l0.3-0.5c-1.8-1.3-3-4.2-3.6-6.7c-0.3-1.2-0.5-2.4-0.6-3.3
		c-0.1-0.4-0.1-0.8-0.1-1s0-0.4,0-0.4H141l-0.4,0.4c4,4.3,4.5,8.4,4.6,10.2c0,0.3,0,0.6,0,0.8V95l0,0l0,0L145.6,95.3l0.3-0.5
		L145.6,95.3z"/>
	<path class="st0" d="M143.1,94.2l-0.3-0.5l0,0c-0.1,0-1,0.4-2.2,0.4c-1.3,0-2.9-0.4-4.5-2.2l-0.4,0.4l-0.2,0.5c0,0,2,0.6,3.5,0.6
		c0.3,0,0.6,0,0.8-0.1c0.1,0,0.3,0,0.4,0c0.5,0,1,0.2,1.5,0.4c0.4,0.2,0.8,0.6,0.9,0.7L143.1,94.2l-0.3-0.5L143.1,94.2l0.5-0.3
		c-0.3-0.4-0.7-0.8-1.3-1.1c-0.6-0.3-1.3-0.5-2-0.6c-0.2,0-0.4,0-0.7,0.1c-0.2,0-0.4,0.1-0.6,0.1c-0.6,0-1.4-0.1-2.1-0.3
		c-0.3-0.1-0.6-0.1-0.8-0.2s-0.3-0.1-0.3-0.1l-2-0.6l1.4,1.6c1.8,2,3.8,2.6,5.4,2.6c1.6,0,2.7-0.5,2.7-0.6l0.6-0.3l-0.4-0.5
		L143.1,94.2z"/>
	<path class="st0" d="M168,92.8l5.1-4.8c0.7-0.8,0.6-1.4,0.9-2.4c0.3-1,2-2.6,4.2-4s2.1-1.8,2.9-2.9c0.7-1.1-1.9,7.5-7.3,9.4
		c0,0-4.7,3.8-5.4,5.2L168,92.8z"/>
	<path class="st0" d="M169.6,91.8L169.6,91.8c-0.1-0.3-0.5-1.6-0.5-3.1c0-0.7,0.1-1.4,0.3-2.1c0.7-2.3,1.5-3.8,1.5-5.5
		c0-0.3,0-0.6-0.1-0.9l-0.6,0.1l-0.4,0.4l0,0c0.1,0.1,1.2,1.4,1.2,4.8c0,1.2-0.2,2.7-0.6,4.5l0.6,0.1l-0.4-0.4l-1.8,1.8l0.8,0.8
		l2-1.9v-0.2c0.4-1.9,0.6-3.5,0.6-4.8c0-3.8-1.4-5.5-1.5-5.6l-1.5-1.6l0.5,2.1c0,0.2,0.1,0.4,0.1,0.7c0,1.2-0.7,2.8-1.4,5.2
		c-0.2,0.8-0.3,1.7-0.3,2.4c0,1.9,0.6,3.4,0.6,3.5L169.6,91.8z"/>
	<path class="st0" d="M173.7,83.8l-0.4-0.4c0,0-1,1-1.9,2.4c-1,1.4-2,3.2-2,5c0,0.1,0,0.3,0,0.4l0.1,1l0.8-0.5c0,0,0.7-0.5,1.5-1.2
		s1.6-1.7,2-2.9c0.4-1.4,0.5-2.6,0.5-3.3c0-0.3,0-0.6,0-0.6l-0.1-1.2l-0.9,0.9L173.7,83.8l-0.6,0.1l0,0c0,0.1,0,0.2,0,0.4
		c0,0.6-0.1,1.7-0.5,2.9c-0.3,0.8-1,1.7-1.7,2.4c-0.3,0.3-0.7,0.6-0.9,0.8c-0.1,0.1-0.2,0.2-0.3,0.2l-0.1,0.1l0.3,0.5l0.6-0.1
		c0-0.1,0-0.2,0-0.3c0-1.3,0.9-3,1.8-4.4c0.5-0.7,0.9-1.2,1.3-1.6c0.2-0.2,0.3-0.4,0.4-0.5c0.1-0.1,0.1-0.2,0.1-0.2L173.7,83.8
		l-0.6,0.1L173.7,83.8z"/>
	<path class="st0" d="M169.7,91.8c0,0,2.7-3,6.4-3.8c3.7-0.7,4.5-0.7,4.5-0.7s-2.2,1.6-2.7,2.5C177.2,90.7,173.9,92.1,169.7,91.8"/>
	<path class="st0" d="M170.6,90.8l0.4,0.4v-0.1c0.3-0.3,1.5-1.6,3.2-2.8c1.7-1.3,3.9-2.5,6.1-2.8l-0.1-0.6l-0.5-0.3l0,0l0,0l0,0l0,0
		c-0.1,0.1-2,3.3-9.4,5.6L170.6,90.8l0.4,0.4L170.6,90.8l0.2,0.5c7.9-2.5,10-6,10.1-6.1l0.6-1l-1.1,0.1c-2.7,0.3-5.2,1.8-7,3.2
		c-1.9,1.4-3.1,2.8-3.1,2.8l-1.4,1.6l2-0.6L170.6,90.8z"/>
	<path class="st0" d="M158.3,112.9l-0.2-0.5c0,0-1.6,0.5-3.4,1.7c-1.8,1.2-3.7,3.1-4.3,5.9l-0.3,1.2l1.1-0.6c0,0,0.5-0.2,1.1-0.6
		c0.7-0.3,1.5-0.7,2.2-1c0.9-0.3,1.9-1.1,2.8-2.2c0.9-1.1,1.6-2.4,1.6-3.9v-0.8l-0.8,0.2L158.3,112.9h-0.6c0,1.1-0.6,2.2-1.3,3.2
		c-0.8,0.9-1.7,1.6-2.3,1.9c-1.5,0.6-3.4,1.6-3.4,1.6l0.3,0.5l0.6,0.1c0.5-2.4,2.2-4.1,3.9-5.2c0.8-0.5,1.6-0.9,2.2-1.2
		c0.3-0.1,0.5-0.2,0.7-0.3l0.2-0.1h0.1L158.3,112.9h-0.6H158.3z"/>
	<path class="st0" d="M158.3,110.2l-0.2-0.5c0,0-1.8,0.8-3.8,2.1c-2,1.4-4.2,3.2-5,5.6l-0.4,1.1l1.1-0.3c0,0,1.6-0.5,3.5-1.4
		s4-2.1,5-3.8c0.4-0.6,0.6-1.1,0.7-1.4c0.2-0.4,0.2-0.7,0.2-1s-0.1-0.5-0.3-0.7s-0.4-0.2-0.6-0.2c-0.2,0-0.4,0.1-0.4,0.1l0,0l0,0
		L158.3,110.2l0.2,0.5v-0.3l-0.2,0.2l0.2,0.1v-0.3l-0.2,0.2l0.2-0.2l-0.3,0.1l0.1,0.1l0.2-0.2l-0.3,0.1h0.1h-0.1l0,0h0.1h-0.1l0,0
		c0,0,0,0.2-0.1,0.5s-0.3,0.7-0.7,1.3c-0.7,1.3-2.7,2.5-4.5,3.3c-0.9,0.4-1.7,0.7-2.3,1c-0.3,0.1-0.6,0.2-0.7,0.3
		c-0.2,0.1-0.3,0.1-0.3,0.1l0.2,0.5l0.5,0.2c0.6-1.9,2.7-3.7,4.6-5c0.9-0.6,1.9-1.2,2.5-1.5c0.3-0.2,0.6-0.3,0.8-0.4
		s0.3-0.1,0.3-0.1L158.3,110.2l0.2,0.5L158.3,110.2z"/>
	<path class="st0" d="M55,64.2L55,64.2c-0.7,0.1-1.3,0.1-1.9,0.3c-0.9,0.4-1.3,1-1.7,1.9c0,0.1,0.1,0.3,0.2,0.3
		c0.1,0,0.3-0.1,0.3-0.2c0.1-0.4,0.2-0.8,0.5-1.2C53.1,64.6,54.1,64.4,55,64.2z"/>
	<path class="st0" d="M49.8,67.6l0.1-0.2l-0.2-0.1c-0.5,0.2-0.9,0.3-1.2,0.8c-0.2,0.3-0.3,0.7-0.3,1.1c0.2-0.5,0.4-1.1,0.8-1.4
		C49.3,67.7,49.5,67.6,49.8,67.6z"/>
	<polygon class="st0" points="17.1,247.1 10.2,247.1 10.2,249.8 16.5,249.8 16.5,252.1 10.2,252.1 10.2,255.5 17.4,255.5 
		17.4,257.8 7.5,257.8 7.5,244.7 17.1,244.7 	"/>
	<path class="st0" d="M21.3,254.7c0.1,0.4,0.2,0.8,0.3,1c0.3,0.3,0.9,0.5,1.8,0.5c0.5,0,0.9-0.1,1.2-0.2c0.3-0.1,0.4-0.4,0.4-0.7
		s-0.1-0.5-0.4-0.6c-0.2-0.1-1.1-0.4-2.6-0.8c-1.1-0.3-1.9-0.6-2.3-1s-0.7-1-0.7-1.7c0-0.9,0.4-1.7,1.1-2.3s1.7-1,3-1
		c1.2,0,2.2,0.2,3,0.7c0.7,0.5,1.2,1.3,1.3,2.5h-2.5c0-0.3-0.1-0.6-0.3-0.8c-0.3-0.3-0.8-0.5-1.4-0.5s-0.9,0.1-1.2,0.3
		c-0.2,0.2-0.4,0.4-0.4,0.6c0,0.3,0.1,0.5,0.4,0.6c0.2,0.1,1.1,0.4,2.6,0.7c1,0.2,1.8,0.6,2.3,1.1s0.7,1.1,0.7,1.8
		c0,1-0.4,1.7-1.1,2.3s-1.8,0.9-3.3,0.9s-2.7-0.3-3.4-1c-0.7-0.6-1.1-1.5-1.1-2.5L21.3,254.7L21.3,254.7z"/>
	<path class="st0" d="M28.5,250v-1.8h1.4v-2.7h2.5v2.7H34v1.8h-1.6v5.1c0,0.4,0,0.6,0.2,0.7c0.1,0.1,0.4,0.2,0.9,0.2h0.2H34v1.9
		h-1.2c-1.2,0-2-0.2-2.5-0.6c-0.3-0.3-0.4-0.7-0.4-1.3v-6L28.5,250L28.5,250z"/>
	<path class="st0" d="M39.3,251.9c0.5-0.1,0.8-0.1,1-0.2c0.4-0.2,0.5-0.4,0.5-0.7c0-0.4-0.1-0.7-0.4-0.8c-0.3-0.1-0.7-0.2-1.2-0.2
		c-0.6,0-1,0.2-1.3,0.4c-0.2,0.2-0.3,0.5-0.4,0.9h-2.4c0.1-0.8,0.3-1.5,0.7-2.1c0.7-0.9,1.8-1.3,3.5-1.3c1.1,0,2,0.2,2.8,0.6
		c0.8,0.4,1.2,1.2,1.2,2.4v4.4c0,0.3,0,0.7,0,1.1c0,0.3,0.1,0.6,0.1,0.7c0.1,0.1,0.2,0.2,0.4,0.3v0.4H41c-0.1-0.2-0.1-0.4-0.2-0.6
		c0-0.2-0.1-0.4-0.1-0.6c-0.4,0.4-0.8,0.7-1.2,1c-0.6,0.3-1.2,0.5-1.9,0.5c-0.9,0-1.6-0.2-2.2-0.7c-0.6-0.5-0.9-1.2-0.9-2.1
		c0-1.2,0.5-2.1,1.4-2.6c0.5-0.3,1.3-0.5,2.2-0.6L39.3,251.9z M40.9,253.1c-0.2,0.1-0.3,0.2-0.5,0.2c-0.2,0.1-0.4,0.1-0.7,0.2
		l-0.6,0.1c-0.5,0.1-0.9,0.2-1.2,0.3c-0.4,0.2-0.6,0.6-0.6,1.1c0,0.4,0.1,0.8,0.4,0.9c0.2,0.2,0.5,0.3,0.9,0.3
		c0.6,0,1.1-0.2,1.5-0.5c0.5-0.3,0.7-0.9,0.7-1.8L40.9,253.1L40.9,253.1z"/>
	<path class="st0" d="M50.8,248.3c0.5,0.3,0.8,0.6,1.1,1.1v-4.6h2.6v13.1H52v-1.3c-0.4,0.6-0.8,1-1.2,1.2c-0.5,0.3-1,0.4-1.7,0.4
		c-1.1,0-2.1-0.5-2.9-1.4c-0.8-0.9-1.2-2.1-1.2-3.5c0-1.6,0.4-2.9,1.1-3.9c0.8-1,1.8-1.4,3-1.4C49.8,247.9,50.3,248.1,50.8,248.3
		 M51.4,255.2c0.4-0.5,0.6-1.2,0.6-2.1c0-1.2-0.3-2-0.9-2.5c-0.4-0.3-0.8-0.5-1.3-0.5c-0.7,0-1.3,0.3-1.6,0.8
		c-0.3,0.6-0.5,1.2-0.5,2.1c0,0.9,0.2,1.6,0.5,2.1c0.4,0.5,0.9,0.8,1.6,0.8C50.5,256,51,255.7,51.4,255.2"/>
	<path class="st0" d="M64.8,256.6c-0.8,1-2.1,1.5-3.7,1.5c-1.7,0-2.9-0.5-3.7-1.5s-1.2-2.2-1.2-3.6c0-1.4,0.4-2.6,1.2-3.6
		s2.1-1.5,3.7-1.5c1.7,0,2.9,0.5,3.7,1.5s1.2,2.2,1.2,3.6C66,254.4,65.6,255.6,64.8,256.6 M62.8,255.2c0.4-0.5,0.6-1.3,0.6-2.2
		c0-1-0.2-1.7-0.6-2.2c-0.4-0.5-1-0.8-1.7-0.8s-1.3,0.3-1.7,0.8s-0.6,1.3-0.6,2.2c0,1,0.2,1.7,0.6,2.2c0.4,0.5,1,0.8,1.7,0.8
		S62.4,255.8,62.8,255.2"/>
	<polygon class="st0" points="73.1,244.7 75.8,244.7 75.8,255.5 82.4,255.5 82.4,257.8 73.1,257.8 	"/>
	<path class="st0" d="M86.6,247H84v-2.3h2.6V247z M84,248.1h2.6v9.7H84V248.1z"/>
	<path class="st0" d="M97.3,249.3c0.7,0.9,1.1,2.1,1.1,3.6s-0.4,2.7-1.1,3.7s-1.7,1.5-3,1.5c-0.8,0-1.5-0.2-1.9-0.5
		c-0.3-0.2-0.6-0.5-0.9-1v1.2H89v-13.1h2.5v4.7c0.3-0.4,0.7-0.8,1.1-1c0.5-0.3,1-0.4,1.8-0.4C95.6,247.9,96.6,248.4,97.3,249.3
		 M95.2,255.2c0.4-0.5,0.5-1.2,0.5-2.1c0-0.7-0.1-1.3-0.3-1.7c-0.3-0.9-1-1.3-1.9-1.3s-1.6,0.4-1.9,1.3c-0.2,0.4-0.3,1-0.3,1.7
		c0,0.8,0.2,1.5,0.5,2.1c0.4,0.5,0.9,0.8,1.7,0.8C94.3,256,94.9,255.7,95.2,255.2"/>
	<path class="st0" d="M105.5,247.9c0,0,0.1,0,0.2,0v2.6c-0.2,0-0.3,0-0.4,0s-0.2,0-0.3,0c-1,0-1.7,0.3-2,1c-0.2,0.4-0.3,0.9-0.3,1.7
		v4.6h-2.6v-9.7h2.4v1.7c0.4-0.6,0.7-1.1,1-1.3c0.5-0.4,1.1-0.6,1.8-0.6L105.5,247.9L105.5,247.9z"/>
	<path class="st0" d="M113.6,248.3c0.7,0.3,1.2,0.8,1.7,1.4c0.4,0.6,0.6,1.2,0.8,2c0.1,0.5,0.1,1.1,0.1,1.9h-7c0,1,0.4,1.7,1,2
		c0.4,0.2,0.9,0.4,1.4,0.4c0.6,0,1-0.2,1.4-0.5c0.2-0.2,0.4-0.4,0.5-0.7h2.6c-0.1,0.6-0.4,1.2-0.9,1.7c-0.9,0.9-2.1,1.4-3.6,1.4
		c-1.3,0-2.4-0.4-3.4-1.2c-1-0.8-1.5-2.1-1.5-3.9c0-1.7,0.4-3,1.3-3.9s2-1.3,3.5-1.3C112.1,247.9,112.9,248.1,113.6,248.3
		 M109.8,250.5c-0.4,0.4-0.6,0.9-0.7,1.5h4.4c-0.1-0.7-0.3-1.2-0.7-1.5c-0.4-0.4-0.9-0.5-1.5-0.5C110.6,250,110.1,250.2,109.8,250.5
		"/>
	<path class="st0" d="M122.8,259.7h0.3c0.2,0,0.5,0,0.7,0s0.4-0.1,0.6-0.2c0.1-0.1,0.3-0.3,0.4-0.6c0.1-0.3,0.2-0.5,0.2-0.6
		l-3.6-10.1h2.8l2.1,7.1l2-7.1h2.7l-3.3,9.5c-0.6,1.8-1.1,3-1.5,3.4s-1.1,0.7-2.2,0.7c-0.2,0-0.4,0-0.5,0s-0.3,0-0.6,0L122.8,259.7
		L122.8,259.7z"/>
	<path class="st0" d="M139.8,253.8c0.1,0.6,0.2,1,0.5,1.3c0.5,0.5,1.2,0.8,2.3,0.8c0.7,0,1.2-0.1,1.6-0.2c0.8-0.3,1.2-0.8,1.2-1.5
		c0-0.4-0.2-0.8-0.6-1c-0.4-0.2-1-0.4-1.8-0.6l-1.4-0.3c-1.4-0.3-2.3-0.6-2.9-1c-0.9-0.6-1.3-1.5-1.3-2.8c0-1.2,0.4-2.1,1.3-2.9
		c0.9-0.8,2.1-1.2,3.8-1.2c1.4,0,2.6,0.4,3.6,1.1c1,0.7,1.5,1.8,1.5,3.2H145c0-0.8-0.4-1.3-1.1-1.7c-0.4-0.2-1-0.3-1.6-0.3
		c-0.7,0-1.3,0.1-1.7,0.4c-0.4,0.3-0.7,0.7-0.7,1.2s0.2,0.8,0.6,1c0.3,0.1,0.9,0.3,1.7,0.5l2.3,0.5c1,0.2,1.8,0.6,2.3,0.9
		c0.8,0.6,1.2,1.5,1.2,2.7s-0.5,2.2-1.4,3s-2.2,1.2-3.9,1.2s-3.1-0.4-4.1-1.2c-1-0.8-1.5-1.9-1.5-3.2h2.7V253.8z"/>
	<path class="st0" d="M157.8,256.6c-0.8,1-2.1,1.5-3.7,1.5c-1.7,0-2.9-0.5-3.7-1.5s-1.2-2.2-1.2-3.6c0-1.4,0.4-2.6,1.2-3.6
		s2.1-1.5,3.7-1.5c1.7,0,2.9,0.5,3.7,1.5s1.2,2.2,1.2,3.6C159,254.4,158.6,255.6,157.8,256.6 M155.8,255.2c0.4-0.5,0.6-1.3,0.6-2.2
		c0-1-0.2-1.7-0.6-2.2c-0.4-0.5-1-0.8-1.7-0.8s-1.3,0.3-1.7,0.8s-0.6,1.3-0.6,2.2c0,1,0.2,1.7,0.6,2.2c0.4,0.5,1,0.8,1.7,0.8
		S155.4,255.8,155.8,255.2"/>
	<path class="st0" d="M169.1,249.3c0.7,0.9,1.1,2.1,1.1,3.6s-0.4,2.7-1.1,3.7c-0.7,1-1.7,1.5-3,1.5c-0.8,0-1.5-0.2-1.9-0.5
		c-0.3-0.2-0.6-0.5-0.9-1v1.2h-2.5v-13.1h2.5v4.7c0.3-0.4,0.7-0.8,1.1-1c0.5-0.3,1-0.4,1.8-0.4C167.4,247.9,168.4,248.4,169.1,249.3
		 M167,255.2c0.4-0.5,0.5-1.2,0.5-2.1c0-0.7-0.1-1.3-0.3-1.7c-0.3-0.9-1-1.3-1.9-1.3s-1.6,0.4-1.9,1.3c-0.2,0.4-0.3,1-0.3,1.7
		c0,0.8,0.2,1.5,0.5,2.1c0.4,0.5,0.9,0.8,1.7,0.8S166.6,255.7,167,255.2"/>
	<path class="st0" d="M178.2,248.3c0.7,0.3,1.2,0.8,1.7,1.4c0.4,0.6,0.7,1.2,0.8,2c0.1,0.5,0.1,1.1,0.1,1.9h-7c0,1,0.4,1.7,1,2
		c0.4,0.2,0.8,0.4,1.4,0.4c0.6,0,1-0.2,1.4-0.5c0.2-0.2,0.4-0.4,0.5-0.7h2.6c-0.1,0.6-0.4,1.2-0.9,1.7c-0.9,0.9-2.1,1.4-3.6,1.4
		c-1.3,0-2.4-0.4-3.4-1.2c-1-0.8-1.5-2.1-1.5-3.9c0-1.7,0.4-3,1.3-3.9c0.9-0.9,2-1.3,3.5-1.3C176.8,247.9,177.6,248.1,178.2,248.3
		 M174.5,250.5c-0.4,0.4-0.6,0.9-0.7,1.5h4.4c0-0.7-0.3-1.2-0.7-1.5c-0.4-0.4-0.9-0.5-1.5-0.5C175.3,250,174.8,250.2,174.5,250.5"/>
	<path class="st0" d="M187.4,247.9c0,0,0.1,0,0.2,0v2.6c-0.2,0-0.3,0-0.4,0c-0.1,0-0.2,0-0.3,0c-1,0-1.7,0.3-2.1,1
		c-0.2,0.4-0.3,0.9-0.3,1.7v4.6H182v-9.7h2.4v1.7c0.4-0.6,0.7-1.1,1-1.3c0.5-0.4,1.1-0.6,1.9-0.6L187.4,247.9L187.4,247.9z"/>
	<path class="st0" d="M193,251.9c0.5-0.1,0.8-0.1,1-0.2c0.4-0.2,0.5-0.4,0.5-0.7c0-0.4-0.1-0.7-0.4-0.8c-0.3-0.1-0.7-0.2-1.2-0.2
		c-0.6,0-1,0.2-1.3,0.4c-0.2,0.2-0.3,0.5-0.4,0.9h-2.4c0.1-0.8,0.3-1.5,0.7-2.1c0.7-0.9,1.8-1.3,3.5-1.3c1.1,0,2,0.2,2.8,0.6
		c0.8,0.4,1.2,1.2,1.2,2.4v4.4c0,0.3,0,0.7,0,1.1c0,0.3,0.1,0.6,0.1,0.7c0.1,0.1,0.2,0.2,0.4,0.3v0.4h-2.8c-0.1-0.2-0.1-0.4-0.2-0.6
		c0-0.2-0.1-0.4-0.1-0.6c-0.4,0.4-0.8,0.7-1.2,1c-0.5,0.3-1.2,0.5-1.9,0.5c-0.9,0-1.6-0.2-2.2-0.7c-0.6-0.5-0.9-1.2-0.9-2.1
		c0-1.2,0.5-2.1,1.4-2.6c0.5-0.3,1.3-0.5,2.2-0.6L193,251.9z M194.5,253.1c-0.2,0.1-0.3,0.2-0.5,0.2c-0.2,0.1-0.4,0.1-0.7,0.2
		l-0.6,0.1c-0.5,0.1-0.9,0.2-1.2,0.3c-0.4,0.2-0.6,0.6-0.6,1.1c0,0.4,0.1,0.8,0.4,0.9c0.2,0.2,0.5,0.3,0.9,0.3
		c0.6,0,1.1-0.2,1.5-0.5c0.5-0.3,0.7-0.9,0.7-1.8v-0.8H194.5z"/>
	<path class="st0" d="M207,248.7c0.6,0.5,1,1.4,1,2.6v6.5h-2.6v-5.9c0-0.5-0.1-0.9-0.2-1.2c-0.2-0.5-0.7-0.8-1.4-0.8
		c-0.9,0-1.4,0.4-1.8,1.1c-0.2,0.4-0.2,0.9-0.2,1.5v5.2h-2.5V248h2.5v1.4c0.3-0.5,0.6-0.9,0.9-1.1c0.5-0.4,1.2-0.6,2-0.6
		C205.6,247.9,206.4,248.2,207,248.7"/>
	<path class="st0" d="M218.4,256.6c-0.8,1-2.1,1.5-3.7,1.5c-1.7,0-2.9-0.5-3.7-1.5s-1.2-2.2-1.2-3.6c0-1.4,0.4-2.6,1.2-3.6
		s2.1-1.5,3.7-1.5c1.7,0,2.9,0.5,3.7,1.5s1.2,2.2,1.2,3.6C219.7,254.4,219.2,255.6,218.4,256.6 M216.4,255.2
		c0.4-0.5,0.6-1.3,0.6-2.2c0-1-0.2-1.7-0.6-2.2c-0.4-0.5-1-0.8-1.7-0.8s-1.3,0.3-1.7,0.8s-0.6,1.3-0.6,2.2c0,1,0.2,1.7,0.6,2.2
		c0.4,0.5,1,0.8,1.7,0.8S216,255.8,216.4,255.2"/>
	<path class="st0" d="M75.5,270.1c0.5,0.3,0.8,0.6,1.1,1.1v-4.6h2.6v13.1h-2.5v-1.3c-0.4,0.6-0.8,1-1.2,1.3c-0.5,0.3-1,0.4-1.7,0.4
		c-1.1,0-2.1-0.5-2.8-1.4c-0.8-0.9-1.2-2.1-1.2-3.5c0-1.6,0.4-2.9,1.1-3.9c0.8-0.9,1.8-1.4,3-1.4C74.5,269.7,75.1,269.9,75.5,270.1
		 M76.1,277c0.4-0.5,0.6-1.2,0.6-2.1c0-1.2-0.3-2-0.9-2.5c-0.4-0.3-0.8-0.5-1.3-0.5c-0.7,0-1.3,0.3-1.6,0.9
		c-0.3,0.6-0.5,1.3-0.5,2.1c0,0.9,0.2,1.6,0.5,2.1c0.4,0.5,0.9,0.8,1.6,0.8C75.2,277.8,75.8,277.6,76.1,277"/>
	<path class="st0" d="M87.8,270.2c0.7,0.3,1.2,0.8,1.7,1.4c0.4,0.6,0.7,1.2,0.8,2c0.1,0.5,0.1,1.1,0.1,1.9h-7c0,1,0.4,1.7,1,2
		c0.4,0.2,0.8,0.4,1.4,0.4s1-0.1,1.4-0.4c0.2-0.2,0.4-0.4,0.5-0.7h2.6c-0.1,0.6-0.4,1.1-0.9,1.7c-0.9,0.9-2.1,1.4-3.7,1.4
		c-1.3,0-2.4-0.4-3.4-1.2c-1-0.8-1.5-2.1-1.5-3.9c0-1.7,0.5-3,1.3-3.9c0.9-0.9,2-1.3,3.5-1.3C86.4,269.7,87.1,269.9,87.8,270.2
		 M84,272.4c-0.4,0.4-0.6,0.9-0.7,1.5h4.4c-0.1-0.7-0.3-1.2-0.7-1.5c-0.4-0.3-0.9-0.5-1.5-0.5C84.9,271.8,84.4,272,84,272.4"/>
	<polygon class="st0" points="96.8,279.7 96.8,266.6 99.6,266.6 99.6,271.5 104.7,271.5 104.7,266.6 107.4,266.6 107.4,279.7 
		104.7,279.7 104.7,273.8 99.6,273.8 99.6,279.7 	"/>
	<path class="st0" d="M112.4,268.8h-2.6v-2.3h2.6V268.8z M109.8,270h2.6v9.7h-2.6V270z"/>
	<path class="st0" d="M120,270.1c0.5,0.3,0.8,0.6,1.1,1.1v-4.6h2.6v13.1h-2.4v-1.3c-0.4,0.6-0.8,1-1.2,1.3c-0.5,0.3-1,0.4-1.7,0.4
		c-1.1,0-2.1-0.5-2.9-1.4s-1.2-2.1-1.2-3.5c0-1.6,0.4-2.9,1.2-3.9c0.8-0.9,1.8-1.4,3-1.4C119,269.7,119.5,269.9,120,270.1
		 M120.6,277c0.4-0.5,0.6-1.2,0.6-2.1c0-1.2-0.3-2-0.9-2.5c-0.4-0.3-0.8-0.5-1.3-0.5c-0.7,0-1.3,0.3-1.6,0.9
		c-0.3,0.6-0.5,1.3-0.5,2.1c0,0.9,0.2,1.6,0.5,2.1c0.4,0.5,0.9,0.8,1.6,0.8C119.7,277.8,120.2,277.6,120.6,277"/>
	<path class="st0" d="M129.8,273.8c0.5-0.1,0.8-0.1,1-0.2c0.4-0.2,0.6-0.4,0.6-0.7c0-0.4-0.1-0.7-0.4-0.8c-0.3-0.1-0.7-0.2-1.2-0.2
		c-0.6,0-1,0.2-1.3,0.5c-0.2,0.2-0.3,0.5-0.4,0.9h-2.4c0.1-0.9,0.3-1.5,0.7-2.1c0.7-0.8,1.8-1.3,3.5-1.3c1.1,0,2,0.2,2.8,0.6
		s1.2,1.2,1.2,2.4v4.4c0,0.3,0,0.7,0,1.1c0,0.3,0.1,0.6,0.2,0.7c0.1,0.1,0.2,0.2,0.4,0.3v0.4h-2.8c-0.1-0.2-0.1-0.4-0.2-0.6
		c0-0.2-0.1-0.4-0.1-0.6c-0.4,0.4-0.8,0.7-1.2,1c-0.5,0.3-1.2,0.5-1.9,0.5c-0.9,0-1.6-0.3-2.2-0.8s-0.9-1.2-0.9-2.1
		c0-1.2,0.5-2.1,1.4-2.6c0.5-0.3,1.2-0.5,2.2-0.6L129.8,273.8z M131.3,275c-0.2,0.1-0.3,0.2-0.5,0.2c-0.2,0.1-0.4,0.1-0.7,0.2
		l-0.6,0.1c-0.6,0.1-0.9,0.2-1.2,0.3c-0.4,0.2-0.6,0.6-0.6,1.1c0,0.4,0.1,0.7,0.4,0.9c0.2,0.2,0.5,0.3,0.9,0.3
		c0.6,0,1.1-0.2,1.5-0.5c0.5-0.3,0.7-0.9,0.7-1.7V275H131.3z"/>
	<rect x="136.1" y="266.6" class="st0" width="2.5" height="13.1"/>
	<path class="st0" d="M145.9,270c0.6,0.3,1.1,0.7,1.5,1.4V270h2.5v9.2c0,1.2-0.2,2.2-0.6,2.8c-0.7,1.1-2.1,1.6-4.2,1.6
		c-1.2,0-2.3-0.2-3-0.7c-0.8-0.5-1.2-1.2-1.3-2.2h2.8c0.1,0.3,0.2,0.5,0.3,0.6c0.3,0.2,0.7,0.3,1.4,0.3c0.9,0,1.5-0.3,1.8-0.9
		c0.2-0.4,0.3-1,0.3-2v-0.6c-0.2,0.4-0.5,0.7-0.8,0.9c-0.5,0.4-1.2,0.6-2,0.6c-1.2,0-2.2-0.4-3-1.3c-0.7-0.9-1.1-2-1.1-3.6
		c0-1.4,0.4-2.6,1.1-3.6c0.7-1,1.7-1.5,3-1.5C145.1,269.7,145.5,269.8,145.9,270 M146.8,276.9c0.4-0.4,0.6-1.2,0.6-2.1
		s-0.2-1.6-0.6-2.1c-0.4-0.5-0.9-0.7-1.6-0.7c-0.9,0-1.5,0.4-1.8,1.3c-0.2,0.4-0.3,1-0.3,1.6s0.1,1.1,0.3,1.5c0.3,0.8,1,1.2,1.8,1.2
		C145.9,277.6,146.4,277.4,146.8,276.9"/>
	<path class="st0" d="M160.3,278.5c-0.8,1-2.1,1.5-3.7,1.5c-1.7,0-2.9-0.5-3.7-1.5s-1.2-2.2-1.2-3.6s0.4-2.6,1.2-3.6
		s2.1-1.5,3.7-1.5c1.7,0,2.9,0.5,3.7,1.5s1.2,2.2,1.2,3.6C161.5,276.2,161.1,277.5,160.3,278.5 M158.3,277.1
		c0.4-0.5,0.6-1.3,0.6-2.2c0-1-0.2-1.7-0.6-2.2c-0.4-0.5-1-0.8-1.7-0.8s-1.3,0.3-1.7,0.8s-0.6,1.3-0.6,2.2c0,1,0.2,1.7,0.6,2.2
		c0.4,0.5,1,0.8,1.7,0.8S157.9,277.6,158.3,277.1"/>
	<polygon class="st0" points="106.5,229.2 106.5,233.5 112.3,233.5 115.1,235.9 118.5,233.5 124.4,233.5 124.4,229.2 115.1,235.3 	
		"/>
	<path class="st0" d="M112.9,234c0,0.9-0.8,1.6-1.9,1.6c-1,0-1.9-0.7-1.9-1.6v-0.5c0-0.9,0.8-1.6,1.9-1.6c1,0,1.9,0.7,1.9,1.6V234z"
		/>
	<path class="st0" d="M120.3,234c0,0.9-0.8,1.6-1.9,1.6c-1,0-1.9-0.7-1.9-1.6v-0.5c0-0.9,0.8-1.6,1.9-1.6c1,0,1.9,0.7,1.9,1.6V234z"
		/>
	<path class="st0" d="M201.7,90.9c0.3-0.1,0.6,0,0.8-0.2c0.5-0.2,1.1-0.5,1.4-1h-0.1c-0.1,0.1-0.2,0.2-0.4,0.3
		c-0.4,0.1-0.7,0.1-1,0.3l0,0c-0.2,0.1-0.4,0.2-0.5,0.3h-0.2v-0.1c0.2-0.2,0.4-0.3,0.6-0.4c0.4-0.2,0.8-0.2,1.1-0.4l0,0
		c0.1-0.1,0.4-0.1,0.3-0.3c-0.5-0.1-1.1,0.2-1.5,0.4c-0.3,0.1-0.6,0.3-0.8,0.5l0,0c-0.4,0.3-0.7,0.3-1,0.5c-0.1,0.1-0.4,0.2-0.5,0.3
		l0.2,0.1l0,0l0.1-0.1l0,0l0.1-0.1C200.8,90.9,201.3,90.8,201.7,90.9z"/>
	<path class="st0" d="M202.9,88.4c-0.3,0-0.6,0.2-0.8,0.4l-0.1,0.1c-0.5,0.2-1,0.8-1.1,1.4c0.2,0.1,0.4-0.2,0.5-0.3
		c0.4-0.3,0.8-0.5,1.1-0.8l0.1-0.2l-0.2,0.1l0,0l0,0c-0.4,0.1-0.6,0.4-0.9,0.6v-0.2C202,89.1,202.5,88.8,202.9,88.4L202.9,88.4z"/>
	<path class="st0" d="M203.9,90.6c-0.4,0.3-0.8,0.6-1.2,0.7c-0.1,0.1-0.3,0.1-0.5,0.1c-0.1,0.1-0.2-0.1-0.3,0v-0.1
		c0.1-0.1,0.2,0,0.3,0c0.5-0.2,1.1-0.3,1.5-0.8v-0.1c-0.2,0.1-0.5,0.2-0.7,0.4c-0.5,0.3-0.9,0.3-1.4,0.3c-0.2,0.1-0.4,0-0.6,0.2
		c0.3,0.1,0.6,0.2,0.9,0.3c0.2,0.1,0.4,0.1,0.6,0c0.1-0.1,0.2,0,0.3-0.1c0.2,0,0.4-0.2,0.6-0.2c0.2-0.1,0.3-0.2,0.5-0.3
		C203.8,90.8,204.1,90.7,203.9,90.6z"/>
	<path class="st0" d="M198.8,91.5c-0.1,0.1-0.4,0-0.5,0.1c-0.2,0-0.4,0.1-0.6,0.1l-0.2,0.1c-0.2,0-0.5,0.1-0.7,0.1h-0.1
		c-0.1,0-0.3,0-0.4,0l-0.1-0.1c0.1-0.1,0.3-0.1,0.4-0.2c0.3,0,0.6-0.1,0.9-0.1c0.6-0.2,1.2-0.1,1.7-0.4l0,0c-0.3,0-0.7-0.1-1,0
		c-0.1-0.1-0.3,0-0.4,0h-0.1c-0.6,0.1-1.3,0.3-1.9,0.5c-0.2,0.1-0.3,0.2-0.5,0.1c-0.3,0-0.5,0-0.8,0.1l0.3,0.1l0,0
		c0.2,0,0.3,0.1,0.5,0.1c0.3,0,0.6,0,0.9,0.1c0.1,0,0.2,0,0.3,0.1c0.3,0.2,0.6-0.1,0.8,0h0.3c0.1-0.1,0.3,0,0.4-0.1
		c0.3,0,0.5-0.1,0.7-0.2c0.3-0.2,0.7-0.2,0.9-0.5C199.5,91.3,199.1,91.4,198.8,91.5z"/>
	<path class="st0" d="M197.1,90.6L197.1,90.6c0.6-0.1,1-0.3,1.5-0.4c-0.3-0.2-0.7,0-0.9,0c-0.1-0.1-0.3,0-0.4,0
		c-0.5,0.1-0.9,0.3-1.3,0.6c-0.1,0.2-0.3,0.3-0.3,0.5h0.1c0.5-0.3,1-0.3,1.6-0.4c0.2,0,0.4,0,0.6-0.1c0.2,0,0.3-0.2,0.4-0.1l0.3-0.1
		l0.1-0.1c-0.1,0-0.3-0.1-0.4,0c-0.2-0.1-0.4,0.1-0.6,0.1C197.6,90.6,197.4,90.7,197.1,90.6c-0.2,0.1-0.4,0.2-0.6,0.1
		C196.7,90.7,196.9,90.6,197.1,90.6L197.1,90.6z"/>
	<path class="st0" d="M198.7,92.6c-0.3,0.1-1.3,0.2-1.3,0.2c-0.2,0-0.3,0-0.4-0.1l0.1-0.1h0.2c0.5-0.1,1-0.2,1.5-0.2
		c0.1-0.1,0.3,0,0.4-0.1H199c-0.3-0.3-0.6,0.1-0.9,0c0,0-2.1,0-2.2,0.1c0.1,0.1,1,0.7,1.2,0.7c0.2-0.1,0.4-0.1,0.6-0.1
		c0.1-0.1,0.2,0,0.3-0.1c0.4,0,0.9-0.1,1.3-0.3C199.1,92.5,198.8,92.7,198.7,92.6z"/>
	<polygon class="st0" points="189.6,88 189.3,87.9 189.3,87.6 189.6,87.7 	"/>
	<path class="st0" d="M114.6,72.8v-0.9l-70.9-0.5l0.1,127h0.9l-0.8-0.1c0,0-0.1,0.7-0.1,1.8c0,2.5,0.6,7.2,4.5,11.7
		s10.9,8.5,23.5,9.8c15.3,1.6,23.9,1.9,29.6,3c2.9,0.5,5,1.3,7,2.4c2,1.2,3.8,2.8,6,5.1l0.3,0.3h0.4h0.4l0.3-0.3c2.2-2.4,4-4,6-5.1
		c3-1.7,6.4-2.5,11.9-3.1c5.6-0.6,13.3-1.1,24.7-2.3c12.6-1.3,19.7-5.4,23.5-9.8c3.9-4.5,4.5-9.2,4.5-11.7c0-1.1-0.1-1.8-0.1-1.8
		l-0.8,0.1h0.9l0.1-127L115.6,72h-1l0,0l0,0V72.8v0.9h1l69.1-0.4l-0.1,125.4v0.1l0,0c0,0.1,0.1,0.7,0.1,1.5c0,2.2-0.5,6.5-4,10.6
		c-3.5,4-10.1,7.9-22.4,9.2c-15.2,1.6-23.8,1.9-29.8,3c-3,0.6-5.4,1.3-7.6,2.6s-4.2,3-6.4,5.4l0.6,0.6v-0.9H115v0.9l0.6-0.6
		c-2.3-2.4-4.2-4.2-6.4-5.4c-3.3-1.9-7-2.7-12.6-3.3s-13.3-1.1-24.7-2.3c-12.3-1.3-18.9-5.2-22.4-9.2s-4-8.3-4-10.6
		c0-0.5,0-0.9,0-1.2c0-0.1,0-0.2,0-0.3v-0.1l0,0v-0.1L45.4,73.2l69.1,0.4l0,0L114.6,72.8L114.6,72.8z"/>
	<path class="st0" d="M160,146.6c-3.6,0.1-7.5-2.1-9.2-3.7c-1.7-1.6-6.4-4.5-8.5-7.5c-2.1-3.1-2.6-3.3-3.8-3.5s-2.3-1.5-2.8-4
		s-1.7-1.9-2.4-2.7c-0.7-0.8-0.3-5.5-0.7-10s-2.2-7.1-2.8-7.4s-1.1,1.7-1.7,1.2c-0.6-0.5-0.9-1.6-1.2-1.7c-0.4-0.1-1,1-1.3-0.5
		c-0.4-1.4-2.3-5-2.9-7.3c-0.6-2.4-0.2-5.3-0.6-6.8c-0.4-1.4-2.3-0.5-2.3-0.5c-0.7-1-8.1,1.1-8.4,2.4c-0.3,1.2-0.2,4.1-2.6,5.8
		c-2.4,1.7-2.4,3.4-2.9,5.1s-3.1,3.5-4.4,4.4c-1.2,0.9-1.6,3.1-2.1,4.1s-0.7,1-1.5-0.2c-0.9-1.2-1.8,0-1.9,0.8s-0.7,0.1-0.7,0.1
		c-1.7-0.9-1.9,2.5-1.9,2.5c0.5,5.8-0.9,10.1-2.9,12.3c-2,2.2-5.1,2.9-5.6,4s-2.7,2.3-3.7,2.8s-5.8,3.1-6.2,3.7
		c-0.4,0.6,0.3,2.2-2.4,3.2c-2.7,1-5.8,3.3-5.8,3.3l-0.8,1.2l45.8,1c3.3-1.4,9.3-3.4,7.6-4.8c-2.4-1.9,5.9-4.5,5.7-8.5
		c-0.1-1.8,2.4-1.3,1.9-3.1c-0.6-1.8,0.9-2.2-0.4-2.8s-1.4-4.6-1.4-4.6c0-10.2-3.8-13.3-4.3-14c-0.4-0.7-0.3-5-1.5-7.2
		c-1.1-2.2-0.5-5.4-0.6-7.3l1-3.3c0,0,1.1-1.1,1.2,0.8s-0.2,6.1,0.9,8.3c1.1,2.2,2.7,5.3,3.1,6s0.9-0.3,1.3,0.3
		c0.4,0.6,0.5,0.9,1,1.1c0.4,0.2,1.5,0.4,1.6-0.2c0.1-0.7,0.7-0.4,1,0.7c0.4,1.1,1.7,3.4,1.7,13.6c0,0-0.2,2.5,1.1,3.1
		s1.4,0.6,2,2.3c0.6,1.8,0.4,2.3,1.7,3.5s2.6,0.2,3.5,1.9c0.9,1.6,3.5,4.7,5.9,6.6c2.4,1.9,7.3,5.2,8.3,6.1l-28.8,1.8l34.5,0.8
		C160.3,149.9,163.6,146.5,160,146.6z"/>
	<g>
		<path class="st0" d="M126.5,161.5C126.5,161.6,126.4,161.6,126.5,161.5c2.2,0.6,4.2,1.3,5.7,2c0,0,0,0,0-0.1v-0.2
			c0-0.3,0.2-0.5,0.4-0.7c-0.5-0.3-1.1-0.5-1.6-0.7c-1.3-0.5-2.7-0.9-4.3-1.3C126.6,160.8,126.6,161.2,126.5,161.5z"/>
		<path class="st0" d="M124.2,161.2c0-0.1,0-0.2,0-0.3c0-0.3,0-0.7,0.1-0.9c-2.6-0.5-5.5-0.9-8.5-1c0,0.2,0,0.3,0,0.5
			c0,0.1,0,0.2,0,0.3v0.1c0,0.1,0,0.2-0.1,0.3C118.7,160.4,121.6,160.7,124.2,161.2z"/>
		<path class="st0" d="M134.4,164.3c-0.1,0.2-0.3,0.2-0.4,0.3c0.6,0.4,1.1,0.9,1.4,1.3c0.2-0.2,0.5-0.3,0.7-0.4
			c0.1,0,0.3-0.1,0.4-0.1c-0.2-0.3-0.5-0.6-0.9-0.9c-0.2-0.2-0.5-0.4-0.8-0.6C134.6,164,134.5,164.1,134.4,164.3z"/>
		<path class="st0" d="M132.3,171.3c0-0.2,0-0.4-0.1-0.4c0-0.1,0-0.1-0.1-0.2c-2.8,1.2-7.1,2-12.2,2.1c0.1,0.1,0.1,0.3,0.2,0.4
			c0.1,0.3,0.1,0.6,0.1,0.8c4.8-0.2,9-1.1,12-2.2C132.3,171.7,132.3,171.5,132.3,171.3z"/>
		<path class="st0" d="M117.9,173.9c-0.1-0.2-0.2-0.5-0.3-0.6c-0.1-0.1-0.1-0.2-0.1-0.4l0,0c-0.8,0-1.6,0-2.5-0.1
			c-4.2-0.2-8.2-0.7-11.4-1.6c-0.1,0.2-0.2,0.8-0.4,1.2c3.3,0.9,7.3,1.5,11.5,1.6c0.9,0,1.8,0.1,2.6,0.1c0.2,0,0.3,0,0.5,0
			C117.9,174.1,117.9,174,117.9,173.9z"/>
		<path class="st0" d="M101.1,171.1c0-0.2,0.1-0.3,0.2-0.5c-3.2-1-5.4-2.4-6.2-3.8l-0.3-0.3h-0.1c-0.2,0-0.5,0.1-0.7,0.2l-0.2,0.2
			c0,0.1-0.1,0.2-0.1,0.3c0,0,0,0.1-0.1,0.1c0.3,0.4,0.6,0.9,1.1,1.3c1.1,0.9,2.6,1.8,4.6,2.6c0.5,0.2,1.1,0.4,1.6,0.6
			C101,171.6,101.1,171.3,101.1,171.1z"/>
		<path class="st0" d="M137,167.6l-0.2-0.1c-0.2-0.1-0.4-0.1-0.4-0.1l0,0l0,0l-0.1,0.1c-0.1,0.1-0.2,0.1-0.4,0.1
			c-0.1,0.8-0.8,1.6-1.8,2.2c0.1,0.2,0.3,0.6,0.3,1.1c0.5-0.3,0.9-0.6,1.3-0.9C136.5,169.3,137,168.5,137,167.6L137,167.6z"/>
		<path class="st0" d="M104.2,160.4c0,0.1,0,0.2,0,0.4l0,0c2.6-0.4,5.6-0.6,8.9-0.6v-0.1c-0.1-0.3-0.1-0.6-0.1-0.9
			c0-0.1,0-0.1,0-0.2h-0.1c-3.3,0-6.4,0.3-9.1,0.7C103.9,159.8,104.1,160.1,104.2,160.4z"/>
		<path class="st0" d="M101.6,161c0-0.2-0.1-0.3-0.4-0.6c-0.1,0-0.1-0.1-0.1-0.2c-2.1,0.5-3.8,1.2-5.2,2c0.2,0.1,0.3,0.2,0.5,0.3
			c0.2,0.2,0.4,0.3,0.5,0.5c1.2-0.7,2.8-1.3,4.8-1.8C101.7,161.2,101.6,161.1,101.6,161z"/>
		<path class="st0" d="M95.1,164.4c0-0.1-0.1-0.2-0.3-0.3c-0.2-0.1-0.4-0.2-0.5-0.2h-0.2c0,0-0.1,0-0.1-0.1
			c-0.2,0.3-0.4,0.6-0.6,0.9c0.2-0.1,0.3-0.1,0.5-0.1c0.1,0,0.3,0,0.4,0.1c0.3,0.1,0.4,0.2,0.6,0.4c0.1-0.2,0.1-0.3,0.2-0.5l0,0
			V164.4z"/>
	</g>
	<g>
		<path class="st0" d="M135.1,188.5c-0.2,0-0.3-0.1-0.4-0.2c-0.1,0-0.1-0.1-0.2-0.2c-1.7,1.3-4.8,3.3-8.9,4.9
			c0.2,0.1,0.3,0.3,0.3,0.6v0.2C130.7,192,134,189.5,135.1,188.5z"/>
		<path class="st0" d="M94.4,188.8c0-0.1,0-0.2,0.1-0.3c-0.5-0.3-0.9-0.7-1.3-1v0.8c0.4,0.3,0.8,0.6,1.2,1
			C94.4,189.3,94.4,188.8,94.4,188.8z"/>
		<path class="st0" d="M123.5,194.6v-0.8c-2.5,0.8-5.2,1.3-8.2,1.4c-0.4,0-0.8,0-1.1,0c-1.9,0-3.6-0.2-5.3-0.4v0.5
			c0,0.2,0,0.3-0.1,0.4c1.7,0.3,3.5,0.5,5.4,0.5c0.4,0,0.7,0,1.1,0C118.3,196.1,121,195.5,123.5,194.6
			C123.5,194.7,123.5,194.7,123.5,194.6z"/>
		<path class="st0" d="M106.7,194.4c-4.1-1-7.5-2.7-10.2-4.5c0,0.2-0.2,0.4-0.3,0.5c0,0-0.1,0-0.1,0.1c2.7,1.9,6.2,3.8,10.6,4.9
			V194.4z"/>
	</g>
	<g>
		<path class="st0" d="M134.1,181c-1.2,0.5-3.1,0.8-4.3,0.9l-4.1,10.6c4.4-1.7,7.7-4,9.2-5.2L134.1,181z"/>
		<path class="st0" d="M108,193.1l10.3-18.6c-1.2,0-2.3,0-3.5,0c-4.5-0.2-8.6-0.8-12-1.8L108,193.1z"/>
		<path class="st0" d="M133.5,176.2l-0.4-3.1l-1.4,3.5C132.4,176.7,133.1,176.5,133.5,176.2z"/>
		<path class="st0" d="M117.4,178.7c0.8,0.2,1.7,0.2,2.4,0.1l-0.8-3.1L117.4,178.7z"/>
		<path class="st0" d="M128.5,182L128.5,182l3.9-9.9c-3.2,1.3-7.6,2.1-12.7,2.3l-0.1,0.1l4.9,17.2L128.5,182z"/>
		<path class="st0" d="M134.4,175.8L134.4,175.8l0.6,4.6l0,0l0.8,6.2l0,0l1-17.4c-0.6,0.9-1.6,1.7-3,2.4L134.4,175.8z"/>
		<path class="st0" d="M93.4,172.6l-0.5-5l0,0v4.8C92.9,172.4,93.1,172.5,93.4,172.6z"/>
		<path class="st0" d="M93.9,177.8c-0.4-0.1-0.8-0.2-1-0.5v9.3c0.6,0.5,1.2,1,1.9,1.5L93.9,177.8z"/>
		<path class="st0" d="M96,186.6l5.3-13.8l-0.1-0.4l0.3-0.1c-3.3-1-5.8-2.3-7.2-3.8l0.4,4.1l0,0l0.5,5.3l0,0L96,186.6z"/>
		<path class="st0" d="M121.2,184.1c-2.5,0.6-5.2,0.2-6.8,0l-5.6,10.1c2,0.4,4.2,0.5,6.5,0.5c3-0.1,5.8-0.7,8.2-1.4L121.2,184.1z"/>
		<path class="st0" d="M102.3,176.7l-0.6-2.3l-0.8,2.2C101.3,176.6,101.8,176.6,102.3,176.7z"/>
		<path class="st0" d="M104,182.7c-1.3-0.2-3.6-0.6-4.8-1.4l-2.8,7.7c2.7,1.9,6.3,3.7,10.7,4.8L104,182.7z"/>
	</g>
	<g>
		<path class="st0" d="M55.3,93.7v-8.4h-1.2H54c-0.5,0-0.7,0.1-0.8,0.3C53,85.7,53,85.8,53,85.9l0,0l0,0l0,0v7.6v0.1l0,0
			c0.1,0,0.2,0.1,0.6,0.1h0.2l0,0C54,93.7,54.6,93.7,55.3,93.7z"/>
	</g>
	<g>
		<path class="st0" d="M60.2,82.6c-0.2,0.4-0.5,0.8-0.8,1.1c-0.7,0.7-1.3,1.1-1.3,1.1h-0.2h-1.7c-0.2,0-0.3,0.1-0.3,0.1l0,0l0,0l0,0
			V85l0,0v8.7c0.2,0,0.4,0,0.6,0c1.2,0,2.6,0,3.7,0V82.6z"/>
	</g>
	<g>
		<path class="st0" d="M60.7,84.7v9c0.7,0,1.3,0,1.6,0c0.1-0.5,0.5-1.7,1.5-2.9c1.2-1.6,3.3-3.2,6.8-3.2l0,0h0.2l0,0
			c3.5,0,5.6,1.6,6.8,3.2c0.9,1.2,1.3,2.4,1.5,2.9c0.3,0,0.9,0,1.6,0v-9H60.7z"/>
	</g>
	<g>
		<path class="st0" d="M67.8,84.1l-3-6.4c0,0-0.1,0-0.2,0c-0.3,0-0.9,0.2-2.1,1c-1.6,1.1-1.8,1.8-1.8,2v0.1l0,0l0,0v0.1l0,0v3.3
			L67.8,84.1L67.8,84.1z"/>
	</g>
	<g>
		<path class="st0" d="M80.7,80.6c0-0.2-0.1-0.8-1.8-2c-1.2-0.8-1.9-1-2.1-1l0,0l-3,6.5h6.9v-3.3l0,0V80.6L80.7,80.6L80.7,80.6z"/>
		<path class="st0" d="M76.1,77.7L76.1,77.7L76.1,77.7L76.1,77.7L76.1,77.7L76.1,77.7L76,77.3c-0.1-0.2-0.2-0.4-0.5-0.7
			c-0.6-0.5-1.8-1-4.4-1c-0.1,0-0.2,0-0.3,0l0,0h-0.2l0,0c-0.1,0-0.2,0-0.3,0c-2.4,0-3.7,0.5-4.3,1c-0.5,0.4-0.6,0.7-0.6,0.9
			l3.1,6.7h4.7L76.1,77.7z"/>
	</g>
	<path class="st0" d="M158.3,112.9c0,0-4.8,1.6-5.2,6.1C153.1,119,158.5,117.1,158.3,112.9"/>
	<path class="st0" d="M158.1,110.3c0,0-5.9,3.2-6.1,6.5c0,0,5.9-2.3,6.6-5.4c0.7-3.1,0-0.1,0-0.1L158.1,110.3z"/>
	<path class="st0" d="M158.9,109.8c0.1,0,1.4,0.2,2.6,3c1.2,2.8,1.2,5.2,1.2,5.3c0,0.1-3.5-1.6-4.4-6.3L158.9,109.8z"/>
	<path class="st0" d="M157.9,117.5c0,0,3.6,3.8-1.3,11.8c0,0,0.4-3.2,0.1-4.4C156.5,123.8,155.6,118.2,157.9,117.5"/>
	<path class="st0" d="M157.9,117.5c0,0,1.9,4.9-5.7,10.4c0,0,1.6-2.8,1.8-4C154.2,122.7,155.5,117.3,157.9,117.5"/>
	<path class="st0" d="M132.3,87c0,0,3.5-0.9,7.3,2.9c3.9,3.8,7.6,6.7,10.1,6.7c0.2,0-0.3,1.1-0.3,1.1s-4.5-1.4-7.8-4.3
		c-3.3-3-5.8-2.8-7.9-4.4C131.6,87.3,132.3,87,132.3,87"/>
	<path class="st0" d="M141.5,87.2c0,0,4,2.1,4.1,8.5C145.6,95.6,142.9,94.2,141.5,87.2"/>
	<path class="st0" d="M145,95.2c0,0-0.6,2.3-4.8,2.4c-4.2,0-5.6-1-5.7-1c-0.1,0,3.1-1,3.7-1.4C138.8,94.9,141.9,93.1,145,95.2"/>
	<path class="st0" d="M148.9,99c0,0-3-0.5-3.6-1c-0.7-0.5-1-1-1.8-0.5s-0.3,1.1,0.3,1.2c0.7,0.1,1.3-0.2,1.8,0.1
		c0.5,0.3,0.6,0.4,0.6,0.4s-0.5,0.4-1.3,0.3c-0.7-0.1-1.4-0.2-1.8,0.6c-0.4,0.8,0.6,1.4,1.2,1.1c0.6-0.3,0.6-0.8,1.3-1.1
		c0.7-0.3,2.4-0.6,3.1-0.7C149.5,99.4,148.9,99,148.9,99"/>
	<path class="st0" d="M142.9,92.8c0,0-2.4-3.5-2.7-5.3c0,0,0.8-0.9,0-1.6c-0.8-0.8-1.5,0.1-1.2,0.8c0.3,0.6,0.9,1.3,0.9,1.3
		s1.6,2.4,1.2,3.5C140.6,92.5,142.9,92.8,142.9,92.8"/>
	<path class="st0" d="M170.6,90.8c0,0,2.7-3,5.6-3.3C176.2,87.5,175,89.4,170.6,90.8"/>
	<path class="st0" d="M169.2,91.8c0,0-1.4-2.8-0.1-6.2C169.1,85.6,171,87.6,169.2,91.8"/>
	<path class="st0" d="M170,91.1c0,0,0-2.5,2.4-5.7C172.4,85.3,173.6,87.5,170,91.1"/>
	<path class="st0" d="M168.6,94c0.1-0.1,2.1-0.3,2.6-0.1c0,0,0.8-0.7,1.4-0.3c0.5,0.4,0.7,0.8,0.4,1.3c-0.2,0.5-1.3,0.7-1.9-0.2
		c-0.6-0.9-2.2-0.1-2.2-0.1L168.6,94z"/>
	<path class="st0" d="M162.7,119.2c-0.6-0.1-1-0.1-1-0.1c-0.1,0-1.5-0.3-1.9-1.3s-0.9-1.7-0.9-1.7s0.2-4.4,0.3-5.9
		c0.1-1.3,0.2-3,0.6-4.5c-0.3,0-0.6,0-0.9,0c-0.1,1-0.3,2.5-0.6,2.9c0,0-2.4,0.3-3.2,0.7c0,0-0.5,0.1-1,0s-1.3,0.6-1,1.1
		c0.4,0.5,1,0.7,1.3,0.3c0.3-0.4,0.2-0.6,0.7-0.9s2.4-0.7,3-0.6c0,0-1.4,3.7-0.6,7.8c0,0,0,0.3,0.1,0.6c0.1,0.3,0.1,0.6,0.1,0.6
		s0.7-1.2,0.6-1.6c0,0,0.1-0.2,0.4,0.4c0.3,0.6,0.6,1.7,0.7,2.1c0.2,0.4,0.5,1,0.4,1.5c0,0.5-0.1,1.2,0.9,1.2c0,0,0.8-0.7-0.2-1.3
		c0,0-0.4-0.6-0.4-1.5c0,0,1,0.2,1.5,0.6c0,0,0.1,0.4,0.3,0.6s0.8,0.2,1.1-0.1C163.4,120.1,163.3,119.3,162.7,119.2z"/>
	<path class="st0" d="M151.2,93.3c-1.1,1-2.6,6-2.6,6l0.1,0.3c0.3,0,0.6,0,1,0.1c1.3,0.2,8,0.6,10.8,0.3c2.8-0.3,6-1.2,6-1.2
		s2.1-0.7,3.6-0.8v-0.1c-1.5-8.6-4.5-7.8-7.2-11.7c-2.7-3.9-6.7-4.3-9.4-3.8c-2.6,0.4-5.7,3.8-5.5,7.6
		C148.3,93.5,151.2,93.3,151.2,93.3z"/>
	<path class="st0" d="M166.5,98.7l0.2,0.5c0,0,0.1,0,0.4-0.1c0.8-0.2,2.5-0.7,3.5-0.7c0.2,0,0.4,0,0.5,0.1h0.1l0.1-0.1h-0.1l0,0
		l0.1-0.1h-0.1c0.1,0.1,0.1,0.3,0.1,0.4c0,0.3-0.1,0.6-0.2,0.9c-0.1,0.4-0.3,0.8-0.3,1.3c0,0.2,0,0.3,0.1,0.5
		c0.1,0.4,0.2,0.8,0.2,1.2c0,0.4-0.1,0.7-0.2,1c-0.2,0.3-0.4,0.6-0.9,0.9c-0.1,0.1-0.4,0.2-0.9,0.3c-1.4,0.2-4,0.3-6.6,0.3
		c-1.8,0-3.6,0-5.1,0c-1.2,0-2.2,0-3,0.1c-1.5,0.1-2.9,0.2-4,0.2c-0.6,0-1.1,0-1.4-0.1c-0.2,0-0.2-0.1-0.3-0.1l0,0
		c0-0.1-0.1-0.2-0.1-0.3c0-0.2,0-0.3,0.1-0.5s0.2-0.4,0.2-0.8c0-0.1,0-0.3-0.1-0.5c-0.2-0.5-0.5-0.8-0.7-1.1
		c-0.2-0.3-0.4-0.6-0.4-0.8c0-0.1,0-0.2,0.1-0.3c0.3-0.4,0.5-0.7,0.6-0.8c0.1-0.1,0.2-0.1,0.5-0.1c0.2,0,0.4,0,0.7,0.1
		c0.5,0.1,1.7,0.2,3.1,0.3c1.4,0.1,3.1,0.1,4.7,0.1c1.2,0,2.4,0,3.2-0.1c2.9-0.3,6.1-1.2,6.1-1.2l0,0l0,0L166.5,98.7l-0.1-0.6
		c0,0-0.2,0.1-0.5,0.1c-1,0.3-3.3,0.8-5.4,1c-0.8,0.1-1.9,0.1-3.1,0.1c-1.5,0-3.2-0.1-4.6-0.1c-1.4-0.1-2.6-0.2-3-0.2
		c-0.3-0.1-0.6-0.1-0.9-0.1c-0.4,0-0.9,0.1-1.2,0.4s-0.6,0.6-0.8,1c-0.2,0.3-0.3,0.6-0.3,0.9c0,0.6,0.3,1.1,0.6,1.5s0.5,0.7,0.5,0.8
		v0.1c0,0.1,0,0.2-0.1,0.4c-0.1,0.2-0.2,0.5-0.2,0.8c0,0.2,0,0.4,0.1,0.6c0.1,0.3,0.2,0.5,0.4,0.6c0.3,0.2,0.7,0.3,1,0.4
		c0.4,0.1,0.8,0.1,1.3,0.1c1.1,0,2.5-0.1,4.1-0.2c0.7-0.1,1.7-0.1,2.9-0.1c1.5,0,3.3,0,5.1,0s3.5,0,4.9-0.1c0.7,0,1.3-0.1,1.9-0.2
		c0.5-0.1,0.9-0.2,1.3-0.4c0.6-0.4,1-0.8,1.3-1.3s0.3-1,0.3-1.5s-0.1-1-0.2-1.5v-0.3c0-0.3,0.1-0.6,0.2-1c0.1-0.4,0.3-0.8,0.3-1.3
		c0-0.3,0-0.6-0.2-0.8c-0.1-0.4-0.5-0.6-0.7-0.6c-0.3-0.1-0.6-0.1-0.9-0.1c-0.9,0-1.9,0.2-2.7,0.4c-0.8,0.2-1.5,0.4-1.5,0.4
		L166.5,98.7l-0.1-0.6L166.5,98.7z"/>
	<path class="st0" d="M147.1,225.9c-0.1-0.1-0.3-0.2-0.4-0.2h-0.1l-3.3,0.2l-0.2,0.2c0,0-0.1,0.1-0.2,0.2c-0.4,0.6-1.4,2-2.8,3.3
		c-1.3,1.3-3,2.6-4.5,2.8c-0.7,0.1-1.4,0.2-2,0.2c-1.3,0-2.4-0.3-3.1-0.7c-0.5-0.3-0.7-0.6-0.9-1c0.1,0.2,0.3,0.3,0.5,0.4
		c0.2,0.1,0.4,0.1,0.7,0.1c0.6,0,1.1-0.2,1.6-0.6c0.5-0.4,0.9-0.9,0.9-1.7V229c0-0.6-0.2-1.3-0.6-1.8c-0.4-0.5-1.1-0.9-2-0.9
		c-0.4,0-0.8,0.1-1.2,0.2c-0.2,0-0.3,0.1-0.5,0.2c-1.9-0.3-5.3,0.6-5.4,4.4c-0.1,4.5,4.8,5.1,4.8,5.1c1.5,0.1,2.9,0.1,4.2-0.1
		c0.3,0,0.6,0,0.8,0c3.3,0,7-1.9,9.8-5.2c1.8-2.1,2.8-3.2,3.3-3.9c0.3-0.3,0.4-0.5,0.5-0.6l0.1-0.1v-0.1v-0.1c0,0,0-0.1,0.1-0.3
		C147.2,226.2,147.2,226.1,147.1,225.9z M129.7,229.5L129.7,229.5c0,0,0-0.1,0.1-0.1c0.1-0.1,0.2-0.1,0.3-0.2
		C129.9,229.3,129.8,229.4,129.7,229.5z M142.4,230.5c-2.7,3.1-6.1,4.8-9,4.8c-1.5,0-2.8-0.5-3.9-1.4c-1.3-1.2-1.8-2.3-1.8-3.3
		c0-1.4,0.9-2.5,2-2.8c0.4-0.1,0.7-0.2,0.9-0.2c0.6,0,0.9,0.2,1.1,0.5c0.2,0.3,0.4,0.7,0.4,1.1l0,0c0,0.3-0.2,0.5-0.4,0.8
		c-0.3,0.2-0.7,0.3-0.9,0.3h-0.2h-0.1l0,0l0.1-0.2l0,0l0,0l0,0c0.3,0,0.6-0.1,0.8-0.3s0.2-0.4,0.2-0.6v-0.1l0,0l0,0l0,0l0,0
		c-0.1-0.3-0.3-0.6-0.5-0.8c-0.3-0.2-0.6-0.3-0.9-0.3c-0.5,0-0.9,0.2-1.3,0.6c-0.4,0.4-0.6,1-0.6,1.8l0,0c0,1.1,0.6,2.1,1.6,2.6
		c1,0.6,2.2,0.9,3.7,0.9c0.7,0,1.5-0.1,2.2-0.2c2.2-0.4,4.2-2.1,5.7-3.7c1.2-1.2,2-2.4,2.3-2.9l1.4-0.1
		C144.8,227.6,143.9,228.7,142.4,230.5z"/>
	<g>
		<path class="st0" d="M115.7,66.9L29.8,21.3l-2.3-6.1L11.1,9.8l11.1,13.5l7.2-0.6c0,0-28.1,28.1-18.4,73.4
			c4.1,18.9,13.7,31.8,23.5,40.4v-0.8l0,0c0-0.1,0-0.1,0-0.2c0-0.1,0-0.3,0-0.4c0-0.9,0.4-2,0.9-3.2s1.1-2.5,1.7-3.7
			c1.2-2.4,2.5-4.5,2.5-4.5v-0.1v-5.9l-0.8-1.2l0.8-0.8v-2.3l-5.2-4.3l3.1-2.1l-5.1-6.1l2.6-1l-4.8-5.8h4.1L28.8,86h5.1l-4.6-4.9
			l4-0.4l-6.2-7.2l4.5,0.5l-5.1-8.3l5.4,1.9l-4.3-7.7l4.8-1.5L28,52.1l5.9-1.8l-4.2-6.4l4.4-2.3l-1.2-10.8l6.3,7.7l3.3-3.1l-0.1,5.1
			l5.1-4l0.4,5.3l6.1-3l-1.9,5.9l7.4-2.8l-1.1,5.4l7.1-2.3l-1.1,6.7l7.1-4.4l-0.9,5.8l7-0.9c0,0-1.4,5.1-1.1,5.3s6.6-1.8,6.6-1.8
			l-1,6.6l6.4-2.9l-0.8,5.5l5.8-0.7l-0.8,2.3h23V66.9z M24.9,18.9l-1.6,2.5l-7.2-8.2L24.9,18.9l1.5-2.3l1.4,4.1L24.9,18.9z"/>
	</g>
	<path class="st0" d="M100.1,228.8c0.2,0,0.3,0.1,0.5,0.1c0.4,0.1,0.8,0.2,1.1,0.2C101.3,228.4,100.4,228.5,100.1,228.8z"/>
	<path class="st0" d="M102,226.9c-0.2-0.1-0.3-0.1-0.5-0.2c-0.4-0.1-0.9-0.2-1.2-0.2c-0.9,0-1.6,0.4-2,0.9s-0.6,1.2-0.6,1.8v0.1
		c0,0.7,0.4,1.3,0.9,1.7s1.1,0.6,1.6,0.6c0.2,0,0.4,0,0.7-0.1c0.2-0.1,0.4-0.2,0.5-0.4c-0.2,0.4-0.4,0.7-0.9,1
		c-0.7,0.4-1.8,0.7-3.1,0.7c-0.6,0-1.3-0.1-2-0.2c-1.7-0.3-3.6-1.8-5-3.3c-0.7-0.8-1.3-1.5-1.6-2c-0.2-0.3-0.4-0.5-0.5-0.7l-0.1-0.2
		v-0.1L88,226h-0.3l-3.1-0.1c0,0-0.1,0-0.2,0s-0.3,0-0.4,0.2s-0.1,0.3-0.1,0.4c0,0.1,0,0.2,0,0.2l0.1,0.1l0.2,0.3h0.1
		c0,0,0,0,0.1,0.1c0.4,0.4,1.3,1.5,3.6,4.1c2.9,3.3,6.5,5.2,9.8,5.2c0.3,0,0.6,0,0.8,0c1.2,0.2,2.6,0.2,4.2,0.1c0,0,4.9-0.6,4.8-5.1
		C107.3,227.6,103.9,226.6,102,226.9z M101.2,229.5c-0.1-0.1-0.2-0.2-0.3-0.3c0.1,0,0.2,0.1,0.3,0.2
		C101.2,229.4,101.3,229.5,101.2,229.5C101.3,229.5,101.3,229.5,101.2,229.5z M101.8,234.3c-3.4,3-9.4,1.5-13.7-3.5
		c-3.1-3.6-3.7-4.2-3.8-4.4l0,0l0,0l3.2,0.1c0,0,3.6,5.8,7.6,6.5s6.9-0.5,6.9-2.8s-2-2.1-2.1-1.1c0,0-0.1,0.3,0.5,0.4
		c0.5,0,1,1,0.2,1.4c-0.8,0.3-2.4-0.4-2.4-1.6c0-1.2,0.9-2.7,3.2-2C103.6,228,105.1,231.3,101.8,234.3z"/>
	<g>
		<path class="st0" d="M190.1,66.9C190.1,66.9,190.1,66.8,190.1,66.9c-0.2-0.2-0.3-0.1-0.4,0H190.1z"/>
		<path class="st0" d="M191.6,87.4c-0.2-0.2-0.4-0.3-0.5-0.4s-0.3-0.3-0.4-0.5c-0.1,0-0.1-0.1-0.2-0.2v1.1c0.1,0.1,0.3,0.3,0.3,0.5
			s0.3,0.4,0.6,0.5c0.2,0.1,0.3-0.1,0.1-0.3c-0.2-0.2-0.5-0.3-0.4-0.5c0.1-0.1,0.3,0,0.5,0.2c0.1,0.2,0.3,0.5,0.4,0.5
			c0.1,0,0.1-0.3,0-0.5C191.8,87.7,191.8,87.6,191.6,87.4z"/>
		<path class="st0" d="M207.1,76.9c-0.3-0.4-0.5-1.7-0.5-3.1c-0.1-1.4-1.1-2.9-1.5-3.6c-0.4-0.8-0.9-0.4-1.1-0.7
			c-0.2-0.3-0.4-0.4-0.7-0.5s-0.7,0.2-0.9,0.5s0.1,0.8,0.3,1.6c0.1,0.8-1,1.5-0.6,1.2c0.3-0.4,0.3-1.3,0.1-1.5s0-0.7-0.3-1.2
			s-0.1-0.4,0.2-0.9c0.2-0.5-0.2-0.3-0.4-0.2c-0.2,0.1-0.9,0.1-0.5-0.2c0.4-0.2,0.6-0.8,0.4-0.6c-0.3,0.3-0.9,0.3-0.9,0.3
			s0.1-0.3,0.3-0.5c0.2-0.1,0.2-0.5-0.2-0.2c-0.4,0.2-0.6,0.2-0.6,0.2c0.4-0.4,0.2-0.5-0.2-0.3c-0.3,0.2-0.8,0.1-1.3,0
			c0-0.1-0.1-0.1-0.1-0.2c-0.1-0.2-0.2-0.2-0.2-0.2c-0.4-0.5-0.3-1.1,0.1-1.1c0,0-0.5,0.3,0.3,0.7c0.5,0.3,0.7,0.3,0.7,0.2h0.1
			c0,0-0.2-0.4-0.5-0.4s-0.3-0.3-0.3-0.3s0.6,0,0.7,0c0.1,0,0.2,0.4,0.5,0.4l0.3-0.3l0.3-0.4c0,0,0-0.3-0.2-0.3s-0.1-0.1-0.2,0
			c-0.1,0.1-0.5,0.1-0.6,0.2c-0.1,0,0.1-0.2,0.2-0.2c0.1,0-0.1-0.1-0.3-0.2c-0.2,0-0.7-0.1-0.9-0.2c-0.2,0-0.7-0.1-1,0.3
			c-0.3,0.3-0.7,1.1-0.7,1.4c0,0.2,0.4,0.7,0.5,0.8l0,0c-0.1,0-0.2,0.1-0.2,0.1c0-0.3-0.8-0.8-1.5,0c-0.4,0.5-0.3,0.9-0.1,1.2h-0.1
			c-0.4-0.1-1.4-0.5-2.6,0.6c-1.3,1.1-0.6,2.4-0.6,2.4s1.1,1.3,0.9,1.5c-0.2,0.2-0.4,0.3-0.4,0.3s-1.8-0.4-2-1.4s0.2-0.8,0.5-1.1
			c0.2-0.3,0.6-0.6,0.6-1.6s1.1-0.6,1.6-1s0.7-1,0.6-1.5c-0.1-0.5,0.2-0.1,0.1-0.3c-0.1-0.2-0.3-0.6-0.4-0.8c-0.1-0.2,0-0.4-0.1-0.5
			s-0.3-0.3-0.4-0.2c-0.2,0.1-0.4,0.3-0.5,0.6c0,0.3-0.1,0.8,0.1,1c0.2,0.2,0.3,0.3,0.4,0.3c0.2,0,0.2,0.2-0.1,0.4
			c-0.3,0.1-0.5,0.5-0.8,0.5s-0.7,0.1-1,0.3c-0.3,0.2-0.5,0.4-0.6,0.9c-0.1,0.6,0,1-0.3,1.4c0,0,0,0-0.1,0.1v14.1
			c0.2,0.3,0.3,0.6,0.4,0.7h0.1c0,0,0,0,0,0.1s-0.1,0.4,0.4,0.4c0.1,0,0.1,0,0.2,0c0.1,0.3-0.1,0.5-0.3,0.7s0,0.3,0.4,0.3
			s0.8,1.2,1,1.3c0.2,0.1,0.3,0.8,0.3,0.7c0-0.1,0.3-0.2,0.5-0.2s0.4,0.2,0.5,0.3c0.1,0.1,0.4,0.3,0.6,0.4c0.1,0.1,0-0.1-0.1-0.4
			c0-0.3,0.2-0.3,0.1-0.5c0-0.1,0.3,0,0.5,0.1s0.5,0.1,0.6,0s0.3,0.1,0.3,0.3c0,0.2,0.1,0.2,0.1,0.3c0.1,0.1,0.1,0.1,0.3,0
			s0-0.2,0.3-0.3c0.2-0.1,0.2-0.1,0.4-0.1c0.1,0,0.5,0.2,0.6,0.3c0.1,0.1,0.2-0.2,0.2-0.4c0-0.1-0.1-0.2-0.3-0.2
			c0.2-0.1,0.3-0.2,0.5-0.2c0.6-0.2,0.3-0.5,2.3-1.3c2-0.7,2.5-1.7,2.8-2.1s0.4-0.3,0.7-0.1c0.3,0.2,0.4-0.3,0.4-0.3
			c2-2.7,2.6-6.1,2.5-6.5s0-0.9,0.2-0.8C207.1,77.2,207.5,77.3,207.1,76.9z M196.3,68.3c0.5-0.5,0.5-0.1,1,0.2
			c0.2,0.1,0.5,0.3,0.7,0.4c-0.1,0.1-0.1,0.2-0.1,0.2c-0.2-0.1-0.3-0.2-0.4-0.3c-0.1-0.1-0.3,0-0.3,0.1c-0.3-0.1-0.7-0.3-1.1-0.4
			C196.1,68.6,196.2,68.5,196.3,68.3z M191.8,74c-0.2,0-0.4,0.1-0.7,0s-0.3-0.3-0.3-0.5C191,73.7,191.4,73.9,191.8,74z M192,78.3
			c-0.3,0.6-0.2,1-0.4,1.2s-0.4,1.1-0.5,1.3l0,0c-0.1-0.3-0.1-1-0.2-1.1c0,0-0.1-0.2,0-0.3c0.1-0.2,0.1-0.2,0.2-0.5
			c0.2-0.3,0.2-0.6,0-0.5s-0.3,0.1-0.3-0.2c0-0.3-0.3-0.4-0.1-0.7l0,0c0,0,0,0,0.1,0.1c0.6,0.4,0.2,0.9,0.6,0.9
			C191.7,78.6,192.3,77.7,192,78.3z M192.1,74.2L192.1,74.2c0.1,0,0.3,0,0.5,0l0,0C192.4,74.4,192.3,74.5,192.1,74.2z M193.7,86
			c-0.3,0.1-1-0.1-1.3-0.3c-0.2-0.2,0-0.4,0.2-0.5c0.3-0.1,0.3-0.2,0.2-0.5s-0.3-1-0.6-1.6V83c0-0.2,0.1-0.4,0.3-0.4
			s0.5-0.3,0.5-0.3c-0.2,0.5-0.3,1.3-0.3,1.5c-0.1,0.2,0.3,0.4,0.4,0.6c0.1,0.2,0.1,0.7,0.3,0.9c0.2,0.3,0.2-0.3,0.3,0.1
			c0,0.2,0.1,0.3,0.2,0.5C193.9,85.9,193.8,86,193.7,86z M194.2,71.9c-0.1-0.2-0.3-0.4-0.5-0.6c0,0-0.9-1,0.6-1.7
			c0,0,1.8,0.5,2.1,0.5c-0.1,0-0.1-0.1-0.1-0.1c0.2,0.1,0.2,0.1,0.1,0.1c0.3,0.1,1.3,0.4,2,0l0.1-0.1l0,0c0.1,0.2,0.1,0.3,0,0.4
			c-0.1,0-0.3,0.1-0.6,0c-0.4,0-0.5,0.4-1.1,0.4s-0.2,0.2-1.1,0.2C195.1,71,194.7,71.4,194.2,71.9z M201,84.6
			c-0.2,0.6-2,2.2-3.5,3.1c-0.4,0.2-0.7,0.4-0.9,0.5l0,0c-0.1-0.2,0,0,0.1-0.2s-0.3-0.2-0.6,0s-0.3,0.1-0.3-0.1
			c0-0.3-0.5-0.2-0.6-0.3c-0.1,0-0.2-0.2-0.1-0.3v-0.1c0.1,0.1,0.2,0.2,0.3,0.2c0.4,0.2,0.4,0,0.6-0.2c0.2-0.2,0.3-4.9,0.3-5.7
			c0-0.8-0.3-0.7,0-0.9c0.3-0.2,1.1-1.2,1.3-1.4c0.1-0.2,0.2-0.4,0.4-0.4c0.3,0,0.4,0,0.1,0.2c-0.3,0.2,0,1.6,0,1.9
			s-0.7,1.5-0.7,1.9s-0.1,0.4,0.3,0.1c0.3-0.3,1-1.3,1-1.3c0.3,0.4-0.3,1.3-0.6,1.7c-0.4,0.4-1.3,1.3-0.6,1.2
			c0.7-0.1,2.1-2.1,2.1-1.8c0,0.3-0.4,0.6-0.7,1s-0.9,1-1.5,1.9c-0.6,0.8-1,1.1-0.8,1.1s0.9-0.5,1.6-1c0.7-0.5,2-1.6,1.7-1.3
			c-0.2,0.3-1.2,1-1.4,1.4s-1.3,1.2-1.5,1.4c-0.3,0.2-0.6,0.5-0.4,0.5c0.2,0.1,1.2-0.7,2.5-1.4C200.5,85.5,201.2,83.9,201,84.6z"/>
	</g>
	<path class="st0" d="M185.3,66.9c0.2-0.1,0.5-0.3,0.7-0.4s0.3,0.1,0.5,0.1l0.3,0.1c0.1,0,0.3,0,0.3-0.2c-0.1-0.2-0.3-0.3-0.3-0.4
		c0.2,0,0.3,0.1,0.5,0.1c0.2,0.2,0.4,0,0.6,0c0.4-0.2-0.2-0.3-0.2-0.5c0.2-0.1,0.5,0,0.6-0.2c0.7-0.4-0.3-0.4-0.3-0.8
		c-0.2-0.2-0.5-0.1-0.7,0c-0.1,0-0.3,0.1-0.4,0l0.1-0.2l-0.1-0.2c-0.3,0-0.6,0.2-0.7,0.5c-0.1,0.1-0.1,0.2-0.3,0.2
		c0-0.1-0.1-0.3-0.2-0.4c-0.2,0.1-0.3,0.2-0.4,0.4c0,0.2,0.1,0.5,0,0.8c-0.4,0.2-0.1,0.7-0.4,1c0,0.1-0.1,0.2-0.2,0.2L185.3,66.9
		L185.3,66.9z"/>
	<path class="st0" d="M52.5,66.9l0.1-0.2c0.2-0.2,0.5-0.3,0.8-0.5l1.3-1.3l0,0l-1.6,0.9c-0.3,0.2-0.5,0.7-0.7,1.1H52.5z"/>
	<path class="st0" d="M54.7,66.9c0.3-0.3,0.5-0.6,0.5-1.2l-1.8,1.2H54.7z"/>
	<path class="st0" d="M46.8,66.9c0.4-1.2,1.2-2.4,2.7-3.3c3.7-2.1,5.9-1.8,9.6,3.3H60c-4.2-6.2-6.5-6.6-10.5-4.4
		c-1.9,1.1-2.7,2.8-2.9,4.4H46.8z"/>
	<g>
		<polygon class="st0" points="39.6,78.4 33.8,76.5 39.6,80.4 		"/>
		<polygon class="st0" points="39.6,71.7 33.2,71.1 39.6,75.1 		"/>
		<path class="st0" d="M39.6,69.9v-3.1H45c-0.4-1.7-0.5-3-0.4-4.1c1.3,0.1,2.6-0.9,2.9-1.1c0.3-0.2,7.6-5.2,8.6-5.9
			c4.5,1.6,10.7,7.3,14.3,11h5.7l4.8-8.7L69,64.8l6.5-11.5l-9.2,4.6l3.8-8.4L60.9,55l3.2-8.8l-10.2,8.9l3.7-11.2l-6.1,4.2l0.3-2.5
			l-2.3,1.9l0.6-6.4l-2.8,3.8L47,39.8l-3.6,6.1l-2.3-6.5v5L36,39.8l3.6,9.4h-0.2l4.6,6.6l-3.8-8.4l4.9,7.2L42.2,45l4.7,8l-2.8-8
			l4.4,7.5l-2.9-8l4.2,7.4l-2.2-6.6l3.2,6.1v-3.7l2.9,5.1c-2.8,0.6-9.5,5.6-9.8,5.7c-0.2,0-0.9,0.9-1.1,1.8l-0.3-0.2L40,54.8
			l3.4,2.6L39.3,49l-6.2-1.1l6.9,7.2l0.6,1.1l0.2,0.7l-7.7-1.8l8.2,9.5l-8.2-1.5L39.6,69.9z"/>
		<polygon class="st0" points="83.8,66.9 85.1,62.3 77,66.9 		"/>
		<polygon class="st0" points="39.6,84.8 35,83.2 39.6,86.5 		"/>
		<polygon class="st0" points="39.6,103.3 37.8,102.9 39.6,104 		"/>
		<polygon class="st0" points="39.6,108.6 38.8,108.5 39.6,109.1 		"/>
		<polygon class="st0" points="39.6,91 35.5,89.6 39.6,92.4 		"/>
		<polygon class="st0" points="39.6,98.2 35.8,97.7 39.6,99.6 		"/>
	</g>
	<path class="st0" d="M193.5,92.7c-0.3,0-0.6,0-0.9,0c-0.1,0-0.3-0.1-0.5-0.1c-0.3-0.1-0.6-0.3-0.9-0.5V92c0.2,0,2,0.4,2.2,0.4v-0.1
		c-0.2-0.1-2-0.6-2.5-0.8c-0.2-0.1-0.3-0.2-0.5-0.4v0.5c0.2,0.2,0.4,0.5,0.7,0.6l0.2,0.2l0.3,0.1c0.1,0.1,0.8,0.3,1,0.3h0.3
		C193.1,92.9,193.3,92.8,193.5,92.7C193.5,92.8,193.6,92.8,193.5,92.7z"/>
	<g>
		<path class="st0" d="M193.6,91.8c0,0-0.8-0.1-1.1-0.4c-0.1,0-0.2-0.1-0.3-0.1c-0.2-0.1-0.5-0.2-0.8-0.3c-0.2-0.1-0.4,0-0.6-0.2
			c0.2-0.1,0.4,0.1,0.7,0c0.1,0,0.3,0.1,0.4,0.1l0,0c0.1,0,0.2,0.1,0.3,0.1c0.1,0.1,0.2,0,0.3,0.1c0.4,0.1,0.7,0.3,1.2,0.3h0.3
			c-0.1-0.2-0.4-0.3-0.7-0.4l-0.2-0.1c-0.2-0.1-0.4-0.1-0.6-0.1l-0.2-0.1c-0.3,0-0.7-0.2-1-0.2c-0.1,0-0.3-0.1-0.5-0.1l0.2-0.1
			c0.1,0,0.3,0,0.4,0c0.2,0,0.4,0.2,0.6,0.1c0.3,0.1,0.7,0.1,1,0v-0.1c-0.1-0.1-0.2-0.1-0.4-0.1c-0.1-0.1-0.2,0-0.3-0.1
			c-0.3,0-0.6-0.1-0.9-0.1c-0.1,0-0.3,0-0.5,0v-0.1c0.2-0.2,0.5-0.2,0.7-0.2c0.4,0.2,0.9,0.1,1.3,0.3c0.2,0,0.4,0.1,0.7-0.1
			c-0.2-0.2-0.5,0-0.7-0.2c-0.5-0.1-1-0.4-1.5-0.3h-0.2c-0.3,0.1-0.7,0.1-1,0.4v0.1l0.1,0.2h-0.1V91c0.2,0.2,0.5,0.3,0.8,0.4
			c0,0.1,0.2,0.2,0.3,0.2c0.2,0.2,0.5,0.2,0.8,0.3c0.2,0,0.4,0.1,0.6,0.2c0.2,0.1,0.4,0,0.6,0c0.2-0.1,0.4-0.1,0.5-0.2
			C194,91.7,193.7,91.8,193.6,91.8z"/>
		<path class="st0" d="M190.4,89.3v0.3c0,0,0.1-0.1,0.1-0.2C190.5,89.4,190.4,89.3,190.4,89.3z"/>
	</g>
	<path class="st0" d="M85.9,110.9c-0.1-0.1-0.2-0.1-0.3-0.2c-0.2-0.2-0.3-0.5-0.4-0.7c-0.1-0.1-0.1-0.3-0.2-0.3v-0.1l0,0
		c-0.1-0.2-0.3-0.4-0.5-0.4h-1h-0.1h-0.1l0,0c-0.1,0-0.2,0-0.4,0.1c-1.5-1-2.3-2.1-2.7-2.8c0.3-0.1,0.6-0.2,0.9-0.4
		c0.4-0.3,0.7-0.8,0.7-1.4s-0.3-1.1-0.7-1.4c-0.4-0.3-0.8-0.4-1.3-0.4h-0.1h-0.1l0,0c0,0-0.2,0-0.4,0.1c-1.3-2.8-1.3-6.1-1.3-6.1
		c0-0.5-0.1-1-0.2-1.5c0.3,0,0.6-0.1,0.8-0.3c0.2-0.2,0.4-0.5,0.4-0.8s-0.2-0.6-0.4-0.8c-0.2-0.2-0.5-0.3-0.8-0.3H77
		c-2-4.2-6.4-4-6.4-4s-4.4-0.2-6.3,4h-0.7c-0.3,0-0.6,0.1-0.8,0.3c-0.2,0.2-0.4,0.5-0.4,0.8s0.2,0.6,0.4,0.8
		c0.2,0.2,0.5,0.3,0.8,0.3c-0.1,0.5-0.1,1-0.2,1.5c0,0,0,3.4-1.3,6.1H62c-0.1,0-0.2,0-0.3,0h-0.1l0,0h-0.1h-0.1
		c-0.5,0-0.9,0.1-1.3,0.4c-0.4,0.3-0.7,0.8-0.7,1.4s0.3,1.1,0.7,1.4c0.3,0.2,0.6,0.3,0.9,0.4c-0.4,0.7-1.1,1.8-2.7,2.8
		c-0.1,0-0.3,0-0.4-0.1l0,0h-0.1h-0.1h-1c-0.2,0-0.5,0.1-0.5,0.4l0,0c0,0.1-0.3,0.7-0.6,1.1c-0.1,0-0.2,0.1-0.3,0.2
		s-0.2,0.3-0.2,0.4v0.6l0,0v0.4c0,0.2,0.2,0.4,0.4,0.5c0.1,0,2.6,1,13.2,1.1c0.3,1,1.1,1.7,2.2,1.7c1,0,1.9-0.7,2.2-1.7
		c10.1-0.1,12.5-1,12.7-1c0.2-0.1,0.3-0.3,0.4-0.5v-0.4l0,0v-0.6C86.1,111.2,86.1,111,85.9,110.9z M63,94.3c0-0.3,0.3-0.6,0.7-0.6h7
		h7c0.4,0,0.7,0.3,0.7,0.6c0,0.3-0.3,0.6-0.7,0.6h-7h-7C63.3,94.9,63,94.6,63,94.3z M60.9,105.2L60.9,105.2
		c-0.1-0.1-0.1-0.1-0.2-0.2c0-0.1-0.1-0.2-0.1-0.2c0-0.4,0.4-0.6,0.9-0.6l0,0l0,0c0.3,0.1,2.5,0.5,9.1,0.5c6.7,0,8.9-0.4,9.1-0.5
		l0,0l0,0c0.5,0,0.9,0.3,0.9,0.6c0,0.1,0,0.2-0.1,0.2c0,0.1-0.1,0.1-0.1,0.2l0,0c-0.1,0.1-0.3,0.2-0.6,0.2l0,0l0,0c0,0,0,0-0.1,0
		c0,0-1.7,0.5-9.2,0.5s-9.2-0.5-9.2-0.5C61.3,105.4,61.1,105.3,60.9,105.2z M85,111.9c-1,0.2-4.5,0.9-13.6,0.9c-0.3,0-0.5,0-0.8,0
		l0,0c-0.2,0-0.4,0-0.6,0c-5.8,0-9.3-0.3-11.3-0.5c-1-0.1-1.7-0.2-2.1-0.3c-0.1,0-0.1,0-0.2,0v-0.1c0,0,0.1,0,0.1-0.1
		c0.4-0.5,0.7-1,0.8-1.3h0.5h0.1l0,0c0.9,0.2,2.7,0.4,5.8,0.6l0,0h0.1l0,0c0.3,0,0.6,0,0.9,0l0,0c0.1,0,0.2,0,0.4,0l0,0
		c0.2,0,0.4,0,0.7,0l0,0c0.2,0,0.5,0,0.7,0l0,0c0.1,0,0.3,0,0.4,0c1.2,0,2.5,0.1,3.9,0.1c7.5,0,11.2-0.5,12.8-0.8l0,0h0.1h0.5
		c0.2,0.3,0.4,0.9,0.8,1.3C84.9,111.7,85,111.8,85,111.9L85,111.9z"/>
	<g>
		<path class="st0" d="M121.3,206.8c-1.1,0.2-2-0.2-2.9-0.7s-2.3-1-3-1s-1.4,0.6-2.1,0.2c-0.8-0.4-2.7,0-3.2,0.4
			c-0.4,0.4-1.7,0.6-3,0.4c-1.3-0.1-2,0.5-2.4,0.9c-0.5,0.4-1,0.9-1.8,0.9c-0.7,0-1.7,1.1-1.7,1.1s1,0.3,1.6,0.3s2.8-0.1,4.3,0.4
			s4.1,0.2,4.5,0s1.6-0.9,3.1-0.3c1.6,0.6,2.5,0.1,3.4,0s1.5-0.6,1.5-0.6s1.7,0.1,3.9,0c2.2-0.1,1.7-0.9,1.7-0.9
			C125.3,207.5,122.4,206.6,121.3,206.8z"/>
		<path class="st0" d="M170.2,179.5c-1.1,0.2-2-0.2-2.9-0.7s-2.3-1-3-1s-1.4,0.6-2.1,0.2c-0.8-0.4-2.7,0-3.2,0.4
			c-0.4,0.4-1.7,0.6-3,0.4c-1.3-0.1-2,0.5-2.5,0.9s-1,0.9-1.8,0.9c-0.7,0-1.7,1.1-1.7,1.1s1,0.4,1.6,0.4s2.8-0.1,4.3,0.4
			s4.1,0.2,4.5,0s1.6-0.9,3.1-0.3c1.6,0.6,2.5,0.1,3.4,0s1.5-0.6,1.5-0.6s1.7,0.1,3.9,0s1.7-0.9,1.7-0.9
			C174.2,180.2,171.3,179.3,170.2,179.5z"/>
		<path class="st0" d="M185.2,198.9l0.1-51.8H45v33.6c0.8-0.4,2-1,2.7-1.6c1.2-0.9,3.3-1.1,3.3-1.1c1-1.3,1.8-0.6,4.1-1.9
			c2.3-1.4,4.4-1.1,5.9-1.9c1.6-0.8,2.6,0.1,4.2-0.9c1.6-0.9,3.5-0.1,4.6-0.3s3.3,0.8,5.2,0.8c2,0,3.3,1.4,4.4,1.4
			c1.1,0.1,3.2,2.3,4.3,3.4c1.1,1.1,2.4,0.9,1.7,1.1c-0.8,0.1-2.5,1-3.8,1.4s-1.3,1.3-2.6,1.4c-1.4,0.1-2.4-0.4-3.3,0.7
			c-0.9,1.1-2.1,1.4-2.6,1.3c-0.5-0.1-0.8-0.6-1.4,0s-3,0.9-3.7,0.8c-0.7-0.1-1.5-0.6-2.9-0.7c-1.4-0.1-4.2-0.2-5.6-0.7
			c-1.4-0.5-4.8-1.4-6.1-1.4c-1.4,0.1-1.4,0.4-1.9,0.6c-0.6,0.1-0.7-0.4-1.1-0.6c-0.3-0.2-3.6-0.8-5.3-1.1v17.7c0,0-3.4,19,27,22.1
			c30.4,3.2,34.2,1.2,43.1,10.7h0.1c8.9-9.5,12.7-7.5,43.1-10.7C188.5,217.9,185.2,198.9,185.2,198.9z M168.5,147.7
			c6.3,0.4,11.1,4.2,11.1,4.2s-10.7-6.3-23.6,0C156,151.9,162.2,147.3,168.5,147.7z M147.2,153.7c8.3,0.4,14.6,4.2,14.6,4.2
			c-17.4-7-31.1,0-31.1,0S138.9,153.3,147.2,153.7z M92.7,165.2c0.1-0.7,0.5-1.4,1.1-2v-0.1c0.1-0.3,0.3-0.6,0.6-0.7
			c0.2-0.1,0.4-0.2,0.6-0.2c1-0.7,2.2-1.2,3.6-1.8c0.8-0.3,1.6-0.5,2.5-0.7c0,0,0,0,0-0.1c0.1-0.1,0.2-0.2,0.4-0.2
			c0.3-0.1,0.6-0.2,0.9-0.2c0.1,0,0.2,0,0.4,0c2.9-0.6,6.3-0.9,9.9-0.9c0.1,0,0.1,0,0.2,0l0,0l0,0l0,0l0,0c0-0.2,0.2-0.2,0.2-0.3
			c0.1-0.1,0.2-0.1,0.3-0.1c0.2-0.1,0.5-0.1,0.7-0.1l0,0h0.1c0.2,0,0.5,0.1,0.7,0.1c0.2,0.1,0.4,0.2,0.5,0.4c0,0.1,0.1,0.1,0.1,0.2
			c3.1,0.1,6.1,0.5,8.8,1c0.2-0.1,0.5-0.2,0.8-0.2c0.1,0,0.2,0,0.4,0.1c0.2,0.1,0.4,0.2,0.6,0.4c0.1,0.1,0.1,0.1,0.2,0.2
			c2.6,0.6,4.8,1.4,6.6,2.4c0.2-0.1,0.4-0.1,0.6-0.1h0.2c0.5,0,0.9,0.3,1,0.6c0.2,0.3,0.2,0.5,0.2,0.5v0.2c0.2,0.2,0.5,0.4,0.7,0.5
			c0.5,0.4,0.9,0.9,1.2,1.3c0.1,0,0.2,0,0.3,0.1c0.2,0.1,0.4,0.3,0.5,0.6c0.1,0.2,0.1,0.4,0.1,0.6c0,0.2,0,0.4-0.1,0.6
			c0,0.2-0.1,0.3-0.2,0.4c0,0.5-0.2,1.1-0.6,1.6l-0.9,17.1c0.2,0.1,0.3,0.3,0.3,0.6v0.8c0,0.2-0.1,0.4-0.3,0.6v0.1l-0.1,0.1
			c0,0-3.9,3.6-10.1,6v0.1c0,0.3-0.2,0.5-0.4,0.7c-0.2,0.2-0.5,0.2-0.8,0.2s-0.6-0.1-0.8-0.2l0,0c-2.6,0.8-5.4,1.4-8.5,1.5
			c-0.4,0-0.8,0-1.1,0c-2.2,0-4.2-0.2-6.1-0.6c-0.1,0-0.2,0-0.3,0c-0.3,0-0.5-0.1-0.7-0.3l0,0c-4.9-1.1-8.8-3.3-11.7-5.4
			c-0.2,0-0.5-0.1-0.7-0.2c-0.1-0.1-0.3-0.3-0.3-0.5c-0.6-0.5-1.2-0.9-1.7-1.4l-0.1-0.1V187l0,0v-19.7h0.2c-0.1-0.1-0.1-0.1-0.2-0.2
			c-0.2-0.2-0.4-0.6-0.4-1C92.2,165.8,92.4,165.4,92.7,165.2z M147.2,190.9c8.3,0.4,14.6,4.3,14.6,4.3s-15.3-6.5-31.1,0
			C130.7,195.2,138.9,190.5,147.2,190.9z M48.8,151.8c0,0,0.3-0.2,0.9-0.5c1.8-0.9,5.9-2.6,10.1-2.4c5.6,0.3,9.8,2.8,9.8,2.8
			c-9.6-4.4-17.3-1.7-19.9-0.5C49.1,151.6,48.8,151.8,48.8,151.8z M67,157.2c0,0-6.9-4.5-14.4,0c0,0,3.8-3.1,7.7-2.8
			C64.1,154.7,67,157.2,67,157.2z M50.4,163.4c0,0,5.7-4.7,11.5-4.3s10.2,4.3,10.2,4.3C59.8,156.3,50.4,163.4,50.4,163.4z
			 M63.8,171.3c0,0,6.5-4.7,13.1-4.3s11.6,4.3,11.6,4.3C75.3,163.9,63.8,171.3,63.8,171.3z M80.3,196.6c8.3,0.4,14.6,4.3,14.6,4.3
			c-15.6-7.2-31.1,0-31.1,0S72,196.2,80.3,196.6z M49,190c0,0,4.5-2.5,9-2.3s7.9,2.3,7.9,2.3S57.4,187.7,49,190z M54.1,212.2
			c0,0,8.2-4.7,16.5-4.3s14.6,4.3,14.6,4.3S69.4,205.3,54.1,212.2z M89,220.8c0,0,8.2-4.7,16.5-4.3s14.6,4.3,14.6,4.3
			S105.2,213.7,89,220.8z M130.7,208.5c-0.8,0.1-2.5,1-3.8,1.4s-1.3,1.3-2.6,1.4c-1.4,0.1-2.4-0.4-3.3,0.7c-0.9,1.1-2.1,1.4-2.6,1.3
			c-0.5-0.1-0.8-0.6-1.4,0s-3,0.9-3.7,0.8c-0.7-0.1-1.5-0.6-2.9-0.7c-1.4-0.1-4.2-0.2-5.6-0.7s-4.8-1.4-6.1-1.4
			c-1.4,0.1-1.4,0.4-1.9,0.6c-0.6,0.1-0.7-0.4-1.1-0.6c-0.4-0.3-6.3-1.3-6.3-1.3c0.5-0.1,2.5-1.1,3.7-2s3.3-1.1,3.3-1.1
			c1-1.3,1.8-0.6,4.1-1.9c2.3-1.4,4.4-1.1,5.9-1.9c1.6-0.8,2.6,0.1,4.2-0.9c1.6-0.9,3.5-0.1,4.6-0.3s3.3,0.8,5.2,0.8
			s3.3,1.4,4.4,1.4c1.1,0.1,3.2,2.3,4.3,3.4C130.1,208.5,131.4,208.4,130.7,208.5z M138.2,213.2c0,0,8.2-4.7,16.5-4.3
			s14.6,4.3,14.6,4.3S154.8,207.2,138.2,213.2z M153.6,203c0,0,5.9-4.7,11.8-4.3c5.9,0.4,10.4,4.3,10.4,4.3
			C164.3,196.6,153.6,203,153.6,203z M179.6,181.2c-0.8,0.1-2.5,1-3.8,1.4s-1.3,1.3-2.6,1.4c-1.4,0.1-2.4-0.4-3.3,0.7
			c-0.9,1.1-2.1,1.4-2.6,1.3c-0.5-0.1-0.8-0.6-1.4,0s-3,0.9-3.7,0.8c-0.7-0.1-1.5-0.6-2.9-0.7c-1.4-0.1-4.2-0.2-5.6-0.7
			c-1.4-0.5-4.8-1.4-6.1-1.4c-1.4,0.1-1.4,0.4-1.9,0.6c-0.6,0.1-0.7-0.4-1.1-0.6c-0.4-0.3-6.3-1.3-6.3-1.3c0.5-0.1,2.5-1.1,3.7-2
			s3.3-1.1,3.3-1.1c1-1.3,1.8-0.6,4.1-1.9c2.3-1.4,4.4-1.1,5.9-1.9c1.6-0.8,2.6,0.1,4.2-0.9c1.6-0.9,3.5-0.1,4.6-0.3
			s3.3,0.8,5.2,0.8c2,0,3.3,1.4,4.4,1.4c1.1,0.1,3.2,2.3,4.3,3.4C179,181.2,180.3,181.1,179.6,181.2z M148.5,171.9
			c0,0,8.2-4.7,16.5-4.3s14.6,4.3,14.6,4.3C164.2,164.7,148.5,171.9,148.5,171.9z M150.8,165.6c0,0,8.2-4.7,16.5-4.3
			s14.6,4.3,14.6,4.3C166.9,158.8,150.8,165.6,150.8,165.6z"/>
		<path class="st0" d="M61.8,180.8c1.5,0.5,4.1,0.2,4.5,0s1.6-0.9,3.1-0.3c1.6,0.6,2.5,0.1,3.4,0s1.5-0.6,1.5-0.6s1.7,0.1,3.9,0
			c2.2-0.1,1.7-0.9,1.7-0.9c0-0.4-2.9-1.3-4-1.1s-2-0.2-2.9-0.7s-2.3-1-3-1s-1.4,0.6-2.1,0.2c-0.8-0.4-2.7,0-3.2,0.4
			c-0.4,0.4-1.7,0.6-3,0.4c-1.3-0.1-2,0.5-2.4,0.9c-0.5,0.4-1,0.9-1.8,0.9c-0.7,0-1.7,1.1-1.7,1.1s1,0.3,1.6,0.3
			C58.1,180.4,60.3,180.3,61.8,180.8z"/>
	</g>
	<g>
		<path class="st0" d="M227.1,73.6c-0.5-12.8-3.6-23.7-7.1-32.2c-1.7-4.1-4-8.1-6.1-11.5c-1.8-2.9-3.6-5.4-4.8-7.1l3.7,0.3
			l11.1-13.5l-16.4,5.3l-2.3,6.1l-86.6,45.9h58.7l39.5-24.2l0,0c3.4,8.2,6.4,18.7,6.9,31c0,0.2,0,0.5,0,0.7l-33.3,28.4v21.1
			c0.3,0.4,2.8,4.7,4.2,8.2c0.5,1.2,0.8,2.3,0.9,3.2v0.1l0,0l0,0c0,0.1,0,0.2,0,0.3c0,0.3,0,0.5,0,0.8l-0.3,6.9c0,0-0.9,3-4.7,3
			c0,0,0,0-0.1,0v3c0,0,0,0,0.1,0c3.3,0,4.4,2.2,4.6,2.9c0.3-0.4,0.7-0.7,1-1.1c11.3-12.3,23.9-30.4,28.8-53.5
			c1.5-7.2,2.2-14,2.2-20.4C227.2,76.1,227.2,74.8,227.1,73.6z M207.6,20.6l-0.2,0.1h-0.7l3.4-2.2l-1.2-2l11-4.5l-9.8,6.5l1.5,2.5
			l-3.9-0.2L207.6,20.6z"/>
	</g>
</g>
</svg>
